<svg xmlns="http://www.w3.org/2000/svg" viewBox="0 0 500 500"><g id="freepik--background-complete--inject-5"><rect x="266.34" y="78.19" width="78.75" height="95.52" style="fill:#ebebeb"></rect><rect x="275.34" y="86.91" width="60.75" height="78.08" style="fill:#fff"></rect><rect x="275.34" y="86.91" width="2.37" height="78.08" style="fill:#dbdbdb"></rect><rect x="345.09" y="78.19" width="2.37" height="95.52" style="fill:#dbdbdb"></rect><rect x="295.7" y="97.68" width="14.32" height="42.68" style="fill:#dbdbdb"></rect><path d="M328.14,148.14H289V126.23h39.19Zm-38.19-1h37.19V127.23H290Z" style="fill:#ebebeb"></path><rect x="367.63" y="179.12" width="78.75" height="95.52" style="fill:#ebebeb"></rect><rect x="376.63" y="187.83" width="60.75" height="78.08" style="fill:#fff"></rect><rect x="376.63" y="187.83" width="2.37" height="78.08" style="fill:#dbdbdb"></rect><rect x="446.37" y="179.12" width="2.37" height="95.52" style="fill:#dbdbdb"></rect><rect x="401.12" y="208.02" width="12.27" height="31.03" style="fill:#ebebeb"></rect><path d="M426.81,248.76h-34V226.37h34Zm-33-1h32V227.37h-32Z" style="fill:#dbdbdb"></path><path d="M92.59,327.06l-13.12.27-6.66.12c-2.23,0-4.47,0-6.7.05h-.44v-.44l-.06-11.19v-.51h.5l13.24.06c4.42,0,8.83.11,13.24.16h.28v.27c0,1.89-.09,3.78-.13,5.65Zm0,0-.14-5.66c0-1.86-.11-3.7-.13-5.53l.27.27c-4.41.05-8.82.16-13.24.16l-13.24.07.5-.5,0,11.19-.45-.45c2.18,0,4.36,0,6.55.05l6.58.12Z" style="fill:#ebebeb"></path><path d="M77.82,341.17l-13.12.27-6.66.12c-2.23,0-4.47,0-6.7.05H50.9v-.44L50.84,330v-.51h.5l13.24.06c4.41,0,8.83.11,13.24.16h.28V330c0,1.89-.08,3.78-.13,5.65Zm0,0-.14-5.66c-.05-1.86-.11-3.7-.13-5.53l.27.27c-4.41.05-8.83.16-13.24.16l-13.24.06.5-.49-.05,11.19-.45-.45c2.18,0,4.36,0,6.55,0l6.58.12Z" style="fill:#ebebeb"></path><path d="M328.6,202.49l-13.13.28-6.66.11c-2.22.05-4.46,0-6.69.06h-.44v-.45l-.05-11.19v-.5h.5l13.24.07c4.41,0,8.83.11,13.24.16h.28v.27c0,1.9-.08,3.79-.13,5.66Zm0,0-.14-5.65c0-1.86-.11-3.71-.13-5.54l.27.28c-4.41,0-8.83.15-13.24.16l-13.24.06.5-.5-.06,11.19-.44-.44c2.18,0,4.36,0,6.54,0l6.58.11Z" style="fill:#ebebeb"></path><path d="M313.83,216.6l-13.13.28L294,217c-2.22,0-4.46,0-6.69.06h-.45v-.45l0-11.19v-.5h.5l13.24.07c4.41,0,8.82.11,13.24.16h.27v.27c0,1.9-.09,3.79-.13,5.66Zm0,0-.14-5.65c-.05-1.86-.12-3.71-.14-5.54l.28.28c-4.42.05-8.83.15-13.24.16l-13.24.06.5-.5-.06,11.19-.44-.44c2.18,0,4.36,0,6.54.05l6.58.11Z" style="fill:#ebebeb"></path><path d="M299.11,202.49l-13.12.28-6.66.11c-2.23.05-4.46,0-6.7.06h-.44v-.45l-.06-11.19v-.5h.5l13.24.07c4.42,0,8.83.11,13.24.16h.28v.27c0,1.9-.09,3.79-.13,5.66Zm0,0-.14-5.65c0-1.86-.11-3.71-.13-5.54l.27.28c-4.41,0-8.82.15-13.24.16l-13.24.06.5-.5-.05,11.19-.45-.44c2.19,0,4.36,0,6.55,0l6.58.11Z" style="fill:#ebebeb"></path><path d="M448.66,341.17l-13.13.27-6.66.12c-2.22,0-4.46,0-6.69.05h-.45v-.44L421.68,330v-.51h.5l13.24.06c4.41,0,8.83.11,13.24.16h.27V330c0,1.89-.08,3.78-.13,5.65Zm0,0-.14-5.66c0-1.86-.12-3.7-.13-5.53l.27.27c-4.41.05-8.83.16-13.24.16l-13.24.06.5-.49-.06,11.19-.44-.45c2.18,0,4.36,0,6.54,0l6.58.12Z" style="fill:#ebebeb"></path><path d="M433.89,67.49l-13.13.27-6.66.12c-2.22,0-4.46,0-6.69.05H407v-.45l0-11.19v-.51h.51l13.24.06c4.41,0,8.82.11,13.24.16h.27v.27c0,1.9-.09,3.78-.13,5.65Zm0,0-.14-5.66c-.05-1.86-.12-3.7-.14-5.53l.28.27c-4.42,0-8.83.16-13.24.16l-13.24.07.5-.5-.06,11.19-.44-.45c2.18,0,4.35,0,6.54.06l6.58.11Z" style="fill:#ebebeb"></path><path d="M448.66,81.6l-13.13.27-6.66.12c-2.22,0-4.46,0-6.69.05h-.45V81.6l-.05-11.19V69.9h.5l13.24.06c4.41,0,8.83.11,13.24.16h.27v.27c0,1.89-.08,3.78-.13,5.65Zm0,0-.14-5.66c0-1.86-.12-3.7-.13-5.53l.27.27c-4.41,0-8.83.16-13.24.16l-13.24.07.5-.5-.06,11.19-.44-.45c2.18,0,4.36,0,6.54.06l6.58.11Z" style="fill:#ebebeb"></path><path d="M92.59,67.49l-13.12.27-6.66.12c-2.23,0-4.47,0-6.7.05h-.44v-.45L65.61,56.3v-.51h.5l13.24.06c4.42,0,8.83.11,13.24.16h.28v.27c0,1.9-.09,3.78-.13,5.65Zm0,0-.14-5.66c0-1.86-.11-3.7-.13-5.53l.27.27c-4.41,0-8.82.16-13.24.16l-13.24.07.5-.5,0,11.19L66.11,67c2.18,0,4.36,0,6.55.06l6.58.11Z" style="fill:#ebebeb"></path></g><g id="freepik--Shadow--inject-5"><ellipse cx="250" cy="439.56" rx="205.47" ry="26.47" style="fill:#ebebeb"></ellipse></g><g id="freepik--Plant--inject-5"><path d="M400.53,310.13c15.39,15.07,18,38.38,14.73,58.79-.08.47-.8.34-.8-.1,0-4.64.14-9.25.13-13.84-.08-.21-.15-.41-.24-.62-4-2.92-7.71-6.22-10-10.74-2.57-5.05-3.58-10.76-5.54-16-.19-.51.35-.36.71-.1,9.36,6.9,12.34,14.33,15,24.26a82.84,82.84,0,0,0-1.63-15.46c-2-9.42-6-18.76-12.79-25.75C399.87,310.27,400.27,309.87,400.53,310.13Z" style="fill:#263238"></path><path d="M397.64,311.89c-2.64.09-4.3,4.32-6.37,5.55a2,2,0,0,1-2.92-.45c-2-2.86.76-6.38,3.4-8.35-1.89.78-3.45,2.14-5.49,2.53a1.91,1.91,0,0,1-2.47-1.49c-.9-3.89,4-5.62,7.33-5.7-1.62-1.13-6.28-4.19-3.8-5.7s8,2.87,9.74,4.31c2.62,2.13,5.74,5.3,5.86,8.62C403.07,315.09,399.68,312.7,397.64,311.89Z" style="fill:#284177"></path><path d="M397.64,311.89c-2.64.09-4.3,4.32-6.37,5.55a2,2,0,0,1-2.92-.45c-2-2.86.76-6.38,3.4-8.35-1.89.78-3.45,2.14-5.49,2.53a1.91,1.91,0,0,1-2.47-1.49c-.9-3.89,4-5.62,7.33-5.7-1.62-1.13-6.28-4.19-3.8-5.7s8,2.87,9.74,4.31c2.62,2.13,5.74,5.3,5.86,8.62C403.07,315.09,399.68,312.7,397.64,311.89Z" style="opacity:0.1"></path><path d="M398.41,312.54c-3.39-1.54-9.89.68-10.44-.6-1.12-2.61,4.07-4.4,6.88-4.75-2.58-.7-7.53-1.81-7.38-4.3.18-3,7.59-.43,11.34,2.45,4.72,3.62,4.69,7.11,3.91,7.81C401.65,314.11,399,312.8,398.41,312.54Z" style="fill:#284177"></path><path d="M435.58,308.64c-15.95,14.47-19.42,37.66-16.95,58.19.06.46.78.36.8-.07.18-4.64.21-9.25.4-13.84l.26-.61c4.13-2.76,7.94-5.92,10.4-10.35,2.76-4.95,4-10.61,6.15-15.81.21-.5-.34-.37-.7-.13-9.62,6.55-12.88,13.86-15.94,23.68a82.76,82.76,0,0,1,2.21-15.39c2.38-9.34,6.73-18.52,13.76-25.25A.29.29,0,0,0,435.58,308.64Z" style="fill:#263238"></path><path d="M438.41,310.51c2.64.19,4.13,4.48,6.15,5.79a2,2,0,0,0,2.94-.35c2.15-2.77-.52-6.4-3.08-8.46,1.85.84,3.37,2.26,5.38,2.73a1.91,1.91,0,0,0,2.53-1.39c1.05-3.85-3.76-5.77-7.11-6,1.67-1.06,6.43-4,4-5.55s-8.06,2.56-9.9,3.94c-2.69,2-5.93,5.07-6.18,8.39C432.86,313.5,436.34,311.24,438.41,310.51Z" style="fill:#284177"></path><path d="M438.41,310.51c2.64.19,4.13,4.48,6.15,5.79a2,2,0,0,0,2.94-.35c2.15-2.77-.52-6.4-3.08-8.46,1.85.84,3.37,2.26,5.38,2.73a1.91,1.91,0,0,0,2.53-1.39c1.05-3.85-3.76-5.77-7.11-6,1.67-1.06,6.43-4,4-5.55s-8.06,2.56-9.9,3.94c-2.69,2-5.93,5.07-6.18,8.39C432.86,313.5,436.34,311.24,438.41,310.51Z" style="opacity:0.1"></path><path d="M437.61,311.13c3.45-1.41,9.86,1.05,10.46-.21,1.22-2.56-3.9-4.55-6.69-5,2.6-.6,7.59-1.53,7.53-4-.07-3-7.57-.72-11.42,2-4.86,3.44-5,6.93-4.21,7.66C434.32,312.57,437.05,311.36,437.61,311.13Z" style="fill:#284177"></path><path d="M419.27,346.86a158.05,158.05,0,0,1-4.95,22.88.57.57,0,0,1-1.12-.23c1.05-7.05,3-14,4-21a106.06,106.06,0,0,0,1.22-21.58c-.67-11.88-3.89-24.52-11.65-33.82-.17-.22.19-.53.37-.32,15.52,18.09,13.05,40.28,13,42.27,2.19-7.49,4.46-16.08,12.77-23.71.36-.33.64-.17.58.39-1.49,13.89-5.35,21.15-13.41,28.58C419.9,342.5,419.62,344.69,419.27,346.86Z" style="fill:#263238"></path><path d="M406.64,295.17c-2.79-1.24-6.64,2.32-9.4,2.56-1.47.13-2.55-.44-2.8-2-.69-4,4-6.23,7.72-6.94-2.35-.15-4.66.48-7-.14a2.21,2.21,0,0,1-1.82-2.79c1-4.49,7-3.82,10.47-2.22-1.11-2-4.39-7.52-1.07-7.84s6.82,7,7.94,9.39c1.64,3.52,3.28,8.38,1.73,11.88C410.66,301.22,408.35,297,406.64,295.17Z" style="fill:#284177"></path><path d="M406.64,295.17c-2.79-1.24-6.64,2.32-9.4,2.56-1.47.13-2.55-.44-2.8-2-.69-4,4-6.23,7.72-6.94-2.35-.15-4.66.48-7-.14a2.21,2.21,0,0,1-1.82-2.79c1-4.49,7-3.82,10.47-2.22-1.11-2-4.39-7.52-1.07-7.84s6.82,7,7.94,9.39c1.64,3.52,3.28,8.38,1.73,11.88C410.66,301.22,408.35,297,406.64,295.17Z" style="opacity:0.1"></path><path d="M407.11,296.24c-2.74-3.3-10.6-4.28-10.53-5.89.15-3.27,6.44-2.51,9.53-1.45-2.33-2-6.9-5.68-5.49-8.19,1.72-3.06,8.09,3.38,10.53,8.25,3.08,6.14,1.29,9.75.12,10.08C409.68,299.5,407.56,296.78,407.11,296.24Z" style="fill:#284177"></path><path d="M429.48,351l6.85,52.3H394.67c.86-4.63,8.61-52.36,8.61-52.36Z" style="fill:#284177"></path></g><g id="freepik--Icon--inject-5"><rect x="54.38" y="113.26" width="16.18" height="31.34" style="fill:#263238"></rect><polygon points="70.56 113.26 100.38 100.73 100.38 157.14 70.56 144.6 70.56 113.26" style="fill:#37474f"></polygon><path d="M106.64,134.64a26.59,26.59,0,1,1,26.59-26.59A26.62,26.62,0,0,1,106.64,134.64Zm0-48.18a21.59,21.59,0,1,0,21.59,21.59A21.62,21.62,0,0,0,106.64,86.46Z" style="fill:#284177"></path><rect x="82.59" y="105.55" width="48.11" height="5" transform="translate(-45.17 107.06) rotate(-45)" style="fill:#284177"></rect></g><g id="freepik--Table--inject-5"><polygon points="44.45 403.34 95.84 403.1 147.23 403.01 250 402.84 352.77 403.01 404.16 403.1 455.55 403.34 404.16 403.59 352.77 403.67 250 403.84 147.23 403.67 95.84 403.58 44.45 403.34" style="fill:#263238"></polygon></g><g id="freepik--speech-bubble--inject-5"><path d="M330.81,94a41.91,41.91,0,0,1-66.91,33.66l-20.54,5.24,8.55-19.12A41.93,41.93,0,1,1,330.81,94Z" style="fill:#fff"></path><path d="M330.91,94a44.21,44.21,0,0,1-6.06,22.17l-.74,1.26c-.24.42-.55.8-.83,1.2L321.57,121a47.45,47.45,0,0,1-4,4.29l-1.06,1a9.09,9.09,0,0,1-1.11,1l-2.32,1.82c-.78.6-1.64,1.07-2.47,1.6l-1.25.79c-.42.24-.87.44-1.31.67-.88.43-1.76.89-2.65,1.3l-2.77,1a21.33,21.33,0,0,1-2.82.86c-1,.22-1.89.55-2.87.69a41.32,41.32,0,0,1-5.87.64,36.34,36.34,0,0,1-5.9-.07,42,42,0,0,1-21.6-8.54l.43.08c-3.43.82-6.87,1.63-10.3,2.49l-10.29,2.56-.61.15.26-.57,4.24-9.58c1.41-3.19,2.82-6.39,4.19-9.6l0,.38a42.2,42.2,0,0,1-1.8-37.31,44,44,0,0,1,11.5-15.5,41.62,41.62,0,0,1,17.2-8.81,41.37,41.37,0,0,1,36.65,8,42,42,0,0,1,11.71,15.08A44.26,44.26,0,0,1,330.91,94Zm-.2,0a40.81,40.81,0,0,0-16.5-32.47,42.61,42.61,0,0,0-16.86-7.58,41.17,41.17,0,0,0-18.41.43l-2.25.58-2.17.81a33.29,33.29,0,0,0-4.24,1.87c-.34.18-.7.32-1,.51l-1,.6-2,1.19c-.65.42-1.25.91-1.88,1.36s-1.27.89-1.84,1.41a42,42,0,0,0-11.16,14.69,41.49,41.49,0,0,0,.91,36.17l.1.19-.09.19q-2.2,4.75-4.35,9.53L243.64,133l-.36-.42,10.25-2.69c3.43-.88,6.83-1.83,10.24-2.76l.23-.06.2.15a42.14,42.14,0,0,0,10.06,5.31,43.4,43.4,0,0,0,11.08,2.37,34.51,34.51,0,0,0,5.66,0,39.2,39.2,0,0,0,5.62-.68,42.37,42.37,0,0,0,10.72-3.57c.42-.21.86-.39,1.28-.62l1.22-.72c.8-.5,1.66-.92,2.43-1.47l2.32-1.65a9.61,9.61,0,0,0,1.11-.89l1.08-.94a46.54,46.54,0,0,0,4.05-4l1.76-2.25c.29-.39.61-.74.86-1.15l.77-1.21A40.32,40.32,0,0,0,330.71,94Z" style="fill:#263238"></path><polygon points="282.08 118.93 263.29 99.91 269.61 93.67 280.58 104.78 303.39 69.03 310.87 73.8 282.08 118.93" style="fill:#284177"></polygon></g><g id="freepik--Character--inject-5"><path d="M246.64,261.5l-11.59-.58c-.48-5.69-1.7-15-4.23-20,0,0,2,12.57.54,19.82l-10.18-.51c-.49-7.92-2.18-22.31-7.88-32.71.24,1.08,4.38,20.64,2.56,32.44l-89.68-4.5c-3-19.09,1.09-39.49-.7-35.08-4.78,11.76-6.71,26.26-7.38,34.67l-10-.5a63,63,0,0,1,1.53-14.22c1.63-6.2-4.15,6-5.21,14L98.07,254s.09-27,10.92-45.65c14.38-24.86,7.19-34.7,14-62.37,7.71-31.48,51.51-67.83,91.32-25.53,3.22,3.41,23.73,10.85,20.52,51-1.81,22.69-6.73,34.49.5,46.56C244.33,233.05,247.67,249.31,246.64,261.5Z" style="fill:#263238"></path><path d="M94.17,250a71.84,71.84,0,0,1,4.12-28.67,90.1,90.1,0,0,1,5.87-13.4c1.11-2.15,2.47-4.26,3.64-6.3a48.54,48.54,0,0,0,3.14-6.29c3.63-8.71,5.1-18.25,6.79-27.72.83-4.75,1.73-9.52,3-14.22a65.18,65.18,0,0,1,5.09-13.59c-3.49,9-4.57,18.61-5.88,28.14-.61,4.78-1.31,9.57-2.24,14.36a78.39,78.39,0,0,1-4.13,14.1,52.88,52.88,0,0,1-3.38,6.62c-1.26,2.11-2.5,4.07-3.67,6.17a102,102,0,0,0-6.14,12.88,92.42,92.42,0,0,0-4.23,13.67c-.56,2.32-1,4.68-1.31,7.06S94.26,247.62,94.17,250Z" style="fill:#263238"></path><path d="M234.8,171.46c0,3.87-.47,7.72-.61,11.56s-.3,7.66-.15,11.46a67.93,67.93,0,0,0,1.35,11.25c.17.93.44,1.83.65,2.74l.17.69.19.57c.15.39.34.8.53,1.21.82,1.66,1.77,3.34,2.7,5,1.83,3.41,3.62,6.89,5.13,10.49a75.29,75.29,0,0,1,3.71,11.13,62.32,62.32,0,0,1,1.75,11.58,57.78,57.78,0,0,1-.63,11.62,73.47,73.47,0,0,0-3.22-22.62,108,108,0,0,0-9.2-20.88c-.9-1.7-1.83-3.38-2.7-5.19-.21-.46-.42-.93-.61-1.44-.09-.26-.19-.55-.26-.81l-.17-.72c-.21-1-.49-1.92-.63-2.9a60.93,60.93,0,0,1-.93-11.73,88.41,88.41,0,0,1,1-11.63C233.44,179.05,234.18,175.27,234.8,171.46Z" style="fill:#263238"></path><path d="M169.25,242.3c14,14.69,85.87,84.21,117.26,77.72,38-7.86,79.84-25,97.09-41.44,9.66-9.22-34.58-61.8-44.3-54.61-15.33,11.34-52.24,30.2-58.73,32.8s-61.45-25.69-93.5-36.77C158.2,210,159.4,231.94,169.25,242.3Z" style="fill:#c95f50"></path><path d="M415.34,255c-9.27,12.35-38.11,30.19-46.72,31.82S328,240.4,330.91,231.87s37.3-47.69,52.56-51.61S424.94,242.16,415.34,255Z" style="fill:#c95f50"></path><path d="M335.61,224.17s5.46-19.33,4.32-37c-1-14.84-4.06-36.78,3.9-37.6,16.36-1.67,24.08,53,24.08,53s-.47,24.69-16.53,27.78C341.31,232.34,335.61,224.17,335.61,224.17Z" style="fill:#c95f50"></path><path d="M361.21,191c-.81,8.14,9.25,4.44,9.25,4.44s-13.2,8.82-10.8,17.53c2.34,8.4,14.34,3.5,15.2,3.17-.69.47-12.61,8.88-9.29,17.4,3.46,8.84,14.66,1.86,15.38,1.4-.52.65-7.19,9.39-3.2,15.28,6.87,10.12,24.54-11.74,34.42-12.37,0,0,3,16.63,3.17,17.1,0,0,17.23-20.46,15.64-33.74a8.54,8.54,0,0,0-7.53-7.6s6.28-6,3.88-12.77c-1.24-3.47-7.91-4.58-7.91-4.58s4.83-5,2.32-10.9c-2-4.72-8.37-5.1-8.37-5.1s2.42-7-1.18-11.11C405,160.76,363,173.58,361.21,191Z" style="fill:#c95f50"></path><path d="M412.37,180.06a.12.12,0,0,0,0-.23c-14.84.85-30.87,6.32-42.46,15.77-.38.3,0,1.06.45.8C384.14,189,397,183.44,412.37,180.06Z" style="fill:#263238"></path><path d="M419.6,196.12c.17,0,.11-.32-.07-.3-15.28,1-33.17,7.62-45.24,20.07-.42.43-.36,1.23.15.78C383.1,209,405.73,199.09,419.6,196.12Z" style="fill:#263238"></path><path d="M380.4,236.11c12-11.5,26.55-18,42.41-22.49.21-.06.1-.35-.08-.34-8.36.09-18.17,4-25.55,7.73A44,44,0,0,0,380,235.69C379.83,235.94,380.15,236.36,380.4,236.11Z" style="fill:#263238"></path><path d="M370.19,195.38c-.46.37.59.63.15,1-1.87,1.62-12.27,12.37-9.7,17,2.06,3.75,8.52,3.57,11,2.53l6.17-2.62L372.9,218a27.31,27.31,0,0,0-5.46,7c-1.36,2.57-2,5.49-1.07,7.95a5.59,5.59,0,0,0,5.85,3.94,16.91,16.91,0,0,0,7.95-3l6.65-4.36L382,235.78a25.65,25.65,0,0,0-3.33,5.68,10.63,10.63,0,0,0-.91,6.06,5,5,0,0,0,3.6,3.92c1.87.44,4.11-.18,6.17-1,4.19-1.68,8.08-4.28,12.06-6.67,2-1.21,4-2.43,6-3.56s4.2-2.23,6.56-2.37c-2.31.38-4.27,1.73-6.23,2.93s-3.82,2.62-5.71,4a75.09,75.09,0,0,1-12,7.46c-2.19.93-4.6,1.86-7.37,1.41a7.17,7.17,0,0,1-5.53-5.58,13,13,0,0,1,.92-7.55,28.36,28.36,0,0,1,3.62-6.38l1.81,1.9a19.41,19.41,0,0,1-9.36,3.65,8.18,8.18,0,0,1-5.31-1.43,9.16,9.16,0,0,1-3.21-4.38c-1.28-3.53-.21-7.23,1.35-10.08a30.13,30.13,0,0,1,6.13-7.62l1.29,2c-3.17,1.22-10.37,2.2-14.3-3.21C354.24,207.14,367.61,197.05,370.19,195.38Z" style="fill:#263238"></path><path d="M370.46,195.45a16.28,16.28,0,0,1-5,0,3.82,3.82,0,0,1-3.06-2.34,7.76,7.76,0,0,1,.19-4.39c.46-1.59,1-3.23,1.66-4.9a13,13,0,0,0-3.33,4.26,7.71,7.71,0,0,0-.67,5.82,5.17,5.17,0,0,0,5,3.32A8.8,8.8,0,0,0,370.46,195.45Z" style="fill:#263238"></path><path d="M328.15,228.81l54,61S302,329.09,275.88,323.11s-80-46.69-103.64-75.76-9.34-37.13,23.55-26.25,79.31,32.07,84,31.84S328.15,228.81,328.15,228.81Z" style="fill:#284177"></path><path d="M173.19,233a2.92,2.92,0,1,1-2.92-2.92A2.91,2.91,0,0,1,173.19,233ZM198,230.07a2.92,2.92,0,1,0,2.91,2.92A2.92,2.92,0,0,0,198,230.07Zm25.43,1.13a2.91,2.91,0,1,0,5.2,2Zm2.3,44.56a2.92,2.92,0,1,0,2.92,2.92A2.91,2.91,0,0,0,225.74,275.76Zm27.74,0a2.92,2.92,0,1,0,2.91,2.92A2.92,2.92,0,0,0,253.48,275.76Zm27.73,0a2.92,2.92,0,1,0,2.92,2.92A2.92,2.92,0,0,0,281.21,275.76Zm27.73,0a2.92,2.92,0,1,0,2.92,2.92A2.91,2.91,0,0,0,308.94,275.76Zm27.74,0a2.92,2.92,0,1,0,2.91,2.92A2.92,2.92,0,0,0,336.68,275.76Zm27.73,0a2.92,2.92,0,1,0,2.92,2.92A2.91,2.91,0,0,0,364.41,275.76ZM184.14,253.42a2.92,2.92,0,1,0,2.92,2.91A2.91,2.91,0,0,0,184.14,253.42Zm27.74,0a2.92,2.92,0,1,0,2.91,2.91A2.91,2.91,0,0,0,211.88,253.42Zm27.73,0a2.92,2.92,0,1,0,2.92,2.91A2.91,2.91,0,0,0,239.61,253.42Zm27.73,0a2.92,2.92,0,1,0,2.92,2.91A2.91,2.91,0,0,0,267.34,253.42Zm27.74,0a2.92,2.92,0,1,0,2.91,2.91A2.91,2.91,0,0,0,295.08,253.42Zm27.73,0a2.92,2.92,0,1,0,2.92,2.91A2.91,2.91,0,0,0,322.81,253.42Zm27.16.06a2.91,2.91,0,1,0,3.34,3.77Zm-68.76,68a2.92,2.92,0,0,0-2.8,2.07,36.75,36.75,0,0,0,5.64.16A2.92,2.92,0,0,0,281.21,321.46Zm-41.6-22.35a2.92,2.92,0,0,0-2.92,2.92,2.86,2.86,0,0,0,.62,1.79h0c.52.34,1,.69,1.55,1h0a2.84,2.84,0,0,0,.72.09,2.92,2.92,0,1,0,0-5.83Zm27.73,0a2.92,2.92,0,1,0,2.92,2.92A2.91,2.91,0,0,0,267.34,299.11Zm27.74,0A2.92,2.92,0,1,0,298,302,2.92,2.92,0,0,0,295.08,299.11Zm27.73,0a2.92,2.92,0,1,0,2.92,2.92A2.91,2.91,0,0,0,322.81,299.11Zm27.74,0a2.92,2.92,0,0,0-1.41,5.47l4.21-1.76a3,3,0,0,0,.11-.79A2.91,2.91,0,0,0,350.55,299.11Z" style="fill:#fff"></path><path d="M365.86,297c-2.78-4-6.38-7.66-9.54-11.4s-6.69-7.63-10.09-11.38c-6.61-7.31-13.48-14.4-20.34-21.47-4-4.12-8.15-8.07-12.19-12.14-.15-.15-.4.09-.27.25,6.54,7.61,13,15.27,19.7,22.73s13.28,14.58,20.18,21.63c2,2,4,4,6,6a79.89,79.89,0,0,0,6.27,6.08A.19.19,0,0,0,365.86,297Z" style="fill:#263238"></path><path d="M309.73,318.74c-13.69,4-26.13,6.13-33.85,4.36-26.11-6-80-46.69-103.63-75.75-16.69-20.58-14.45-30.62-.05-30.9C205.06,240.13,271.13,289.68,309.73,318.74Z" style="fill:#263238"></path><path d="M256.89,403.45l-15.59-73.8s15.69-24,3.43-44.78c-6.19-10.53-38.27-49.1-57.09-63-22.14-16.35-43.39-1.3-51.65,9.9-16.55,22.44-33,75.2-38.69,171.7Z" style="fill:#284177"></path><path d="M145.46,233a2.92,2.92,0,1,1-2.92-2.92A2.91,2.91,0,0,1,145.46,233Zm24.81-2.92a2.92,2.92,0,1,0,2.92,2.92A2.91,2.91,0,0,0,170.27,230.07Zm30.62,3.34a2.92,2.92,0,1,1-3.47-3.28Zm-84.63,42.74q-.78,2.64-1.54,5.43h.09a2.91,2.91,0,0,0,1.45-5.44Zm26.28-.39a2.92,2.92,0,1,0,2.92,2.92A2.92,2.92,0,0,0,142.54,275.76Zm27.73,0a2.92,2.92,0,1,0,2.92,2.92A2.91,2.91,0,0,0,170.27,275.76Zm27.74,0a2.92,2.92,0,1,0,2.91,2.92A2.92,2.92,0,0,0,198,275.76Zm27.73,0a2.92,2.92,0,1,0,2.92,2.92A2.91,2.91,0,0,0,225.74,275.76Zm-97.07-22.34a2.92,2.92,0,1,0,2.92,2.91A2.91,2.91,0,0,0,128.67,253.42Zm27.74,0a2.92,2.92,0,1,0,2.91,2.91A2.91,2.91,0,0,0,156.41,253.42Zm27.73,0a2.92,2.92,0,1,0,2.92,2.91A2.91,2.91,0,0,0,184.14,253.42Zm27.74,0a2.92,2.92,0,1,0,2.91,2.91A2.91,2.91,0,0,0,211.88,253.42Zm-97.07,68a2.92,2.92,0,1,0,2.91,2.91A2.91,2.91,0,0,0,114.81,321.46Zm27.73,0a2.92,2.92,0,1,0,2.92,2.91A2.91,2.91,0,0,0,142.54,321.46Zm27.73,0a2.92,2.92,0,1,0,2.92,2.91A2.91,2.91,0,0,0,170.27,321.46Zm27.74,0a2.92,2.92,0,1,0,2.91,2.91A2.91,2.91,0,0,0,198,321.46Zm27.73,0a2.92,2.92,0,1,0,2.92,2.91A2.91,2.91,0,0,0,225.74,321.46Zm-97.07-22.35a2.92,2.92,0,1,0,2.92,2.92A2.91,2.91,0,0,0,128.67,299.11Zm27.74,0a2.92,2.92,0,1,0,2.91,2.92A2.92,2.92,0,0,0,156.41,299.11Zm27.73,0a2.92,2.92,0,1,0,2.92,2.92A2.92,2.92,0,0,0,184.14,299.11Zm27.74,0a2.92,2.92,0,1,0,2.91,2.92A2.92,2.92,0,0,0,211.88,299.11Zm27.73,0a2.92,2.92,0,1,0,2.92,2.92A2.92,2.92,0,0,0,239.61,299.11Zm-124.8,68a2.92,2.92,0,1,0,2.91,2.91A2.91,2.91,0,0,0,114.81,367.15Zm27.73,0a2.92,2.92,0,1,0,2.92,2.91A2.91,2.91,0,0,0,142.54,367.15Zm27.73,0a2.92,2.92,0,1,0,2.92,2.91A2.91,2.91,0,0,0,170.27,367.15Zm27.74,0a2.92,2.92,0,1,0,2.91,2.91A2.91,2.91,0,0,0,198,367.15Zm27.73,0a2.92,2.92,0,1,0,2.92,2.91A2.91,2.91,0,0,0,225.74,367.15ZM102.61,345.33c-.23,1.69-.44,3.39-.65,5.12a2.92,2.92,0,0,0,.65-5.12Zm26.06-.53a2.92,2.92,0,1,0,2.92,2.92A2.91,2.91,0,0,0,128.67,344.8Zm27.74,0a2.92,2.92,0,1,0,2.91,2.92A2.92,2.92,0,0,0,156.41,344.8Zm27.73,0a2.92,2.92,0,1,0,2.92,2.92A2.92,2.92,0,0,0,184.14,344.8Zm27.74,0a2.92,2.92,0,1,0,2.91,2.92A2.92,2.92,0,0,0,211.88,344.8Zm27.73,0a2.92,2.92,0,1,0,2.92,2.92A2.92,2.92,0,0,0,239.61,344.8ZM100.94,390.5a2.92,2.92,0,1,0,2.91,2.91A2.91,2.91,0,0,0,100.94,390.5Zm27.73,0a2.92,2.92,0,1,0,2.92,2.91A2.91,2.91,0,0,0,128.67,390.5Zm27.74,0a2.92,2.92,0,1,0,2.91,2.91A2.91,2.91,0,0,0,156.41,390.5Zm27.73,0a2.92,2.92,0,1,0,2.92,2.91A2.91,2.91,0,0,0,184.14,390.5Zm27.74,0a2.92,2.92,0,1,0,2.91,2.91A2.91,2.91,0,0,0,211.88,390.5Zm27.73,0a2.92,2.92,0,1,0,2.92,2.91A2.91,2.91,0,0,0,239.61,390.5Z" style="fill:#fff"></path><path d="M190.81,330a153.69,153.69,0,0,1,22.45-2.14c3.74,0,7.46.12,11.19.34,1.86.12,3.71.17,5.58.21a24.19,24.19,0,0,0,5.82-.42.13.13,0,0,1,.06.26,42.75,42.75,0,0,1-5.36,1.31,39.86,39.86,0,0,1-5.35.38c-3.79.06-7.59-.05-11.38,0-7.66,0-15.31.1-22.95.7C190.52,330.64,190.45,330.05,190.81,330Z" style="fill:#263238"></path><path d="M174.59,341.12a163.89,163.89,0,0,1,17.75-5.6c3-.76,6-1.33,9.11-1.83,1.47-.24,2.94-.45,4.41-.65s3.26-.21,4.88-.44c.16,0,.23.23.06.26-1.52.27-3,.79-4.49,1.14l-4.52,1.07c-3,.71-6,1.46-9,2.15-6,1.38-12,2.81-18,4.4C174.39,341.7,174.29,341.23,174.59,341.12Z" style="fill:#263238"></path><path d="M129.56,240.89C95.5,292.91,60.05,395,73.82,411.51c15.33,18.36,62.68-54.48,61.73-58-.71-2.65,9.08-62.31,16.86-105.84S138,228,129.56,240.89Z" style="fill:#c95f50"></path><path d="M136,353.51c.62-6.3,14.42-85.15,17.92-109.91s-5.51-30.4-24.54-4.53S73.53,346,69.45,385.86c-3.94,38.43,14.68,34.67,35.89,13.05C122.7,381.21,136,353.51,136,353.51Z" style="fill:#284177"></path><path d="M145.46,233a2.92,2.92,0,1,1-2.92-2.92A2.91,2.91,0,0,1,145.46,233Zm-30.65,42.77a2.92,2.92,0,1,0,2.91,2.92A2.92,2.92,0,0,0,114.81,275.76Zm27.73,0a2.92,2.92,0,1,0,2.92,2.92A2.92,2.92,0,0,0,142.54,275.76Zm-13.87-22.34a2.92,2.92,0,1,0,2.92,2.91A2.91,2.91,0,0,0,128.67,253.42ZM87.92,321.58q-1.07,2.71-2.09,5.43a2.82,2.82,0,0,0,1.24.28,2.92,2.92,0,0,0,.85-5.71Zm26.89-.12a2.92,2.92,0,1,0,2.91,2.91A2.91,2.91,0,0,0,114.81,321.46Zm24.81,2.91a2.89,2.89,0,0,0,.73,1.92c.24-1.45.49-2.93.75-4.45A2.91,2.91,0,0,0,139.62,324.37Zm-38.68-25.26a2.92,2.92,0,1,0,2.91,2.92A2.92,2.92,0,0,0,100.94,299.11Zm27.73,0a2.92,2.92,0,1,0,2.92,2.92A2.91,2.91,0,0,0,128.67,299.11Zm-41.6,68A2.92,2.92,0,1,0,90,370.06,2.91,2.91,0,0,0,87.07,367.15Zm27.74,0a2.92,2.92,0,1,0,2.91,2.91A2.91,2.91,0,0,0,114.81,367.15ZM100.94,344.8a2.92,2.92,0,1,0,2.91,2.92A2.92,2.92,0,0,0,100.94,344.8Zm27.73,0a2.92,2.92,0,1,0,2.92,2.92A2.91,2.91,0,0,0,128.67,344.8Zm-41.6,68a2.9,2.9,0,0,0-2.37,1.23,27.06,27.06,0,0,0,2.81-1.19A2.12,2.12,0,0,0,87.07,412.84ZM73.2,390.5a2.92,2.92,0,1,0,2.92,2.91A2.91,2.91,0,0,0,73.2,390.5Zm27.74,0a2.92,2.92,0,1,0,2.91,2.91A2.91,2.91,0,0,0,100.94,390.5Z" style="fill:#fff"></path><path d="M134.23,363.69q1.26-11.16,2.9-22.27c1.07-7.4,2.25-14.79,3.45-22.17s2.51-14.76,3.89-22.11,2.84-14.7,4.44-22q-1.26,11.17-2.9,22.27c-1.07,7.41-2.25,14.8-3.45,22.18s-2.51,14.75-3.89,22.11S135.83,356.38,134.23,363.69Z" style="fill:#263238"></path><path d="M146.37,292.31a33.35,33.35,0,0,1,1.78-5.64,44.13,44.13,0,0,1,2.54-5.34,16,16,0,0,1-.63,2.92c-.28.95-.63,1.87-1,2.79A28.55,28.55,0,0,1,146.37,292.31Z" style="fill:#263238"></path><path d="M73.82,411.51C86.23,423.35,113,420.69,181,420.32c9.41-.05,26.91-66.55,16.86-67-12.66-.59-61.92-.1-65.52.39C102,357.84,65.4,403.48,73.82,411.51Z" style="fill:#c95f50"></path><path d="M184.16,353s28.56-1.4,43.79,2.51c20.39,5.24,35.85,18.15,42,24,12.83,12.11,35.49,50.28,25.63,58.72-8.92,7.65-30.11-32.54-30.11-32.54s28.37,37.41,15.94,44.64S247,409.43,247,409.43s28.28,39.09,14.28,44.51c-10.58,4.1-32.9-38.29-32.9-38.29s24.07,33.76,13.37,38.45c-11.82,5.17-34.88-32.67-34.88-32.67-29.2,7.33-46.11-1.12-57.42-8.57C146.75,411.06,184.16,353,184.16,353Z" style="fill:#c95f50"></path><path d="M256.49,392.05c3.49,4.27,7.06,8.57,10.16,13.14s6,9.25,8.7,14.09c6.52,11.86,8.75,20.31,8.56,19.81-4.61-12-15.45-28.52-18.55-33.09s-5.95-9.28-9.05-13.84C256.24,392.05,256.41,392,256.49,392.05Z" style="fill:#263238"></path><path d="M239.79,402.94c4.22,5.65,8.62,11.1,12.59,16.94s7.2,11.67,10.74,17.73c.28.47-.06.46-.36,0-3.78-5.91-7.73-11.1-11.59-17s-7.47-11.9-11.52-17.61A.08.08,0,0,1,239.79,402.94Z" style="fill:#263238"></path><path d="M223.78,409.71c6.89,8.3,12.24,17.87,17.27,27.38.25.47-.19.41-.47-.06-5.57-9.21-9.88-16.47-17.09-27.08C223.37,409.78,223.63,409.53,223.78,409.71Z" style="fill:#263238"></path><path d="M189.94,351.79l-44.45,75.38s-60.64-1.62-72.17-14.77c-7.59-8.65,28.05-57.07,61.92-59.09Z" style="fill:#284177"></path><path d="M117.72,370.06a2.92,2.92,0,1,1-2.91-2.91A2.91,2.91,0,0,1,117.72,370.06Zm24.82-2.91a2.92,2.92,0,1,0,2.92,2.91A2.91,2.91,0,0,0,142.54,367.15Zm27.73,0a2.92,2.92,0,1,0,2.92,2.91A2.91,2.91,0,0,0,170.27,367.15Zm-83.2,45.69A2.92,2.92,0,1,0,90,415.76,2.91,2.91,0,0,0,87.07,412.84Zm27.74,0a2.92,2.92,0,1,0,2.91,2.92A2.92,2.92,0,0,0,114.81,412.84Zm27.73,0a2.92,2.92,0,1,0,2.92,2.92A2.92,2.92,0,0,0,142.54,412.84Zm-41.6-22.34a2.92,2.92,0,1,0,2.91,2.91A2.91,2.91,0,0,0,100.94,390.5Zm27.73,0a2.92,2.92,0,1,0,2.92,2.91A2.91,2.91,0,0,0,128.67,390.5Zm27.74,0a2.92,2.92,0,1,0,2.91,2.91A2.91,2.91,0,0,0,156.41,390.5Z" style="fill:#fff"></path><path d="M98,371.61c4.53-4.92,17.68-16.91,37.24-18.36.17,0,.23.26.06.29C120.87,356,103,367.46,98.21,371.82,98.09,371.94,97.92,371.73,98,371.61Z" style="fill:#263238"></path><path d="M127.66,419.64c4.45-8.55,9.34-16.85,14.26-25.14s9.83-16.61,15-24.78c2.9-4.62,5.77-9.25,8.83-13.77.08-.12.3,0,.23.12-4.43,8.54-9.3,16.87-14.16,25.18s-9.82,16.61-14.86,24.84q-4.26,7-8.82,13.78C127.94,420.09,127.53,419.89,127.66,419.64Z" style="fill:#263238"></path><path d="M189.88,350.94a84.27,84.27,0,0,0-11.24-.28c-3.75,0-7.5.17-11.25.32-7.46.3-23.3.08-36.64,2.8-.15,0,.75.6.9.56,6.28-1.62,53.63-1.74,57.43-2.23a5.82,5.82,0,0,0-.25.84c0,.2.19.4.36.23.4-.41.66-.87,1-1.31A.55.55,0,0,0,189.88,350.94Z" style="fill:#263238"></path><path d="M151.76,226.47c.61,3.06,15.62,21.93,29.39,19.44,9.69-1.76,4.24-21.07,4.24-21.07l7.12-27.15-33.63-23.05S151.53,225.17,151.76,226.47Z" style="fill:#c95f50"></path><path d="M156.32,192.39a53.6,53.6,0,0,0,29.47,30.94l6.73-25.63-33.63-23.06Z" style="fill:#263238"></path><path d="M228.84,155.36c6.17,45.56-20.46,54.38-30.31,55.7-8.93,1.19-39.51,4.11-50.37-40.57s8.41-61.94,28.7-65.75S222.66,109.79,228.84,155.36Z" style="fill:#c95f50"></path><path d="M217.24,148.9a28,28,0,0,1-3.16-.48,5.15,5.15,0,0,1-3.13-1.09,1.65,1.65,0,0,1-.11-2c.95-1.23,2.49-1.36,4-1.18a6,6,0,0,1,3.88,1.9A1.75,1.75,0,0,1,217.24,148.9Z" style="fill:#263238"></path><path d="M185.54,151.64a29.15,29.15,0,0,0,3.08-.84,5.13,5.13,0,0,0,3-1.45,1.63,1.63,0,0,0-.12-2c-1.09-1.12-2.63-1.06-4.07-.72a6,6,0,0,0-3.63,2.33A1.75,1.75,0,0,0,185.54,151.64Z" style="fill:#263238"></path><path d="M192.91,161.39c0-.11-.23.17-.21.3.35,3.12.24,6.76-2.52,8-.08,0-.06.19,0,.17C193.65,169.13,193.75,164.3,192.91,161.39Z" style="fill:#263238"></path><path d="M189.84,158.35c-5.08,0-4.64,10.17.07,10.14S194.1,158.32,189.84,158.35Z" style="fill:#263238"></path><path d="M187.87,159c-.86.61-1.69,1.66-2.75,1.81-1.23.18-2.22-.85-3.07-1.83-.09-.11-.17,0-.17.12.06,2,.89,3.91,3,4.11,1.92.18,3.21-1.6,3.61-3.57C188.56,159.24,188.22,158.72,187.87,159Z" style="fill:#263238"></path><path d="M211,160.12c0-.12.25.14.25.27,0,3.15.55,6.75,3.43,7.69.09,0,.09.19,0,.18C211.19,167.89,210.52,163.11,211,160.12Z" style="fill:#263238"></path><path d="M213.71,156.75c5-.56,5.8,9.56,1.13,10.08S209.48,157.21,213.71,156.75Z" style="fill:#263238"></path><path d="M215.87,157.26c.85.47,1.71,1.39,2.67,1.38,1.12,0,1.86-1.16,2.49-2.26.06-.12.15,0,.16.09.2,1.94-.29,4-2.13,4.51-1.67.46-3-1.11-3.64-3C215.3,157.63,215.54,157.06,215.87,157.26Z" style="fill:#263238"></path><path d="M195.66,187.2c.75.74,1.5,1.75,2.65,1.85a8.15,8.15,0,0,0,3.38-.78.11.11,0,0,1,.14.16,4.23,4.23,0,0,1-4,1.7,3.36,3.36,0,0,1-2.47-2.79C195.31,187.16,195.55,187.09,195.66,187.2Z" style="fill:#263238"></path><path d="M208.19,175.14s.9,4.65,1,6.86c0,.21-.52.34-1.27.42,0,0-.06,0-.09,0a10.57,10.57,0,0,1-10.45-3.37c-.16-.21.11-.45.32-.33,3,2,6.29,2.36,9.77,2.23.12-.62-1.82-7.91-1.47-8,1.2-.17,3.63.52,5.09.87-1.6-9.75-4.76-19.17-6.22-28.9a.31.31,0,0,1,.58-.17c4,9.63,6.1,20.81,8,30.83C213.75,176.88,209.1,175.47,208.19,175.14Z" style="fill:#263238"></path><path d="M207.56,181.38A12.82,12.82,0,0,1,203,186a5.79,5.79,0,0,1-3.46.66c-2.6-.34-3-2.64-2.75-4.67a13.83,13.83,0,0,1,.75-3.17A16.64,16.64,0,0,0,207.56,181.38Z" style="fill:#263238"></path><path d="M203,186a5.79,5.79,0,0,1-3.46.66c-2.6-.34-3-2.64-2.75-4.67C199.5,181.89,202.4,183.38,203,186Z" style="fill:#ff9bbc"></path><path d="M149.68,172.6c10-4.9,10.24-15.42,10.24-15.42a48.8,48.8,0,0,0,19.67-16.36c-.29,1-2.37,7.74-3.55,11.17,28.78-5.86,37.34-28.06,37.34-28.06,9.52,9.17,11.49,15.11,12.9,18.06,0,0-.09-17.68-9.4-29.37-11.39-14.31-49.1-17.6-66.19,1.59C132.28,134.91,149.68,172.6,149.68,172.6Z" style="fill:#263238"></path><path d="M197.91,146.86a53.19,53.19,0,0,1-14.72,5.67s-.05-.05,0-.06a45.32,45.32,0,0,0,21-13.14,42.87,42.87,0,0,0,6.08-8.8c1.73-3.32,3.4-7.28,3.65-11a.23.23,0,0,1,.45,0c-.27,4-.55,7.66-2.1,11.4a31.43,31.43,0,0,1-6.25,9.64,36.31,36.31,0,0,1-8.07,6.31" style="fill:#263238"></path><path d="M156,169.85s-10.73-13.86-17.08-10,2.21,24.31,10,26.79A7.79,7.79,0,0,0,159.09,182Z" style="fill:#c95f50"></path><path d="M141.47,165.67a.1.1,0,0,0,0,.2c5.47,1.92,8.53,6.75,10.75,11.8-1.69-1.9-3.91-2.88-6.48-.86-.13.1,0,.31.16.28a4.8,4.8,0,0,1,5.35,1.41,23.29,23.29,0,0,1,2.72,4.14c.28.46,1.13.16.92-.38a.61.61,0,0,0-.05-.12C154.62,175.31,148.85,166,141.47,165.67Z" style="fill:#263238"></path><path d="M173.06,204c-8.42-2.27-17-5.07-23.3-11.71-4.42-4.65-8.32-9.95-10.4-16.67a32.28,32.28,0,0,0,4.18,6.88,14.46,14.46,0,0,0,3.6,3.33c5.36,6.66,16.77,14.54,26.05,16.78C174.05,202.82,173.9,204.22,173.06,204Z" style="fill:#284177"></path><path d="M160,175.08c-1.68-1.52-11-14.58-17.55-15.79,7.46-1.49,15.08,11.11,18,15.31C160.69,174.89,160.31,175.36,160,175.08Z" style="fill:#284177"></path><path d="M229.8,169.43c-7.94.54-15-3.23-20.43-3.63s-15.28,4.1-18.68,5.23c-16.56,5.5-33.77-.41-32.48,1.72,12.18,20.22,7.31,29.88,10.47,33.06,3.93,4,24.4,9.82,37.33,6.94,5.51-1.24,17.46-9.52,19.23-12.94C230.61,189.41,231,169.35,229.8,169.43Zm-8.38,22s-9.74,6.48-16.48,7.63-20.83-2.69-20.83-2.69c-1.89-6.58-1.41-15-1.41-15s15.92-3.84,22.14-4.68c4.78-.62,18.41.27,18.41.27A96.39,96.39,0,0,1,221.42,191.39Z" style="fill:#284177"></path><path d="M221.42,191.39s-9.74,6.48-16.48,7.63-20.83-2.69-20.83-2.69c-1.89-6.58-1.41-15-1.41-15s15.92-3.84,22.14-4.68c4.78-.62,18.41.27,18.41.27A96.39,96.39,0,0,1,221.42,191.39Z" style="fill:#fff;opacity:0.1"></path><g style="opacity:0.2"><path d="M201.59,177.17,183.77,195a35.27,35.27,0,0,1-.73-4.29l12.26-12.26C197.51,178,199.7,177.51,201.59,177.17Z" style="fill:#fff"></path><path d="M220.79,176.76l-22.29,22.3c-.74-.07-1.5-.16-2.26-.26l22.17-22.16Z" style="fill:#fff"></path><path d="M222.23,186.84c-.19,1.19-.37,2.24-.52,3l-3.51,3.51c-1.48.87-3.36,1.91-5.36,2.86Z" style="fill:#fff"></path><path d="M223.25,177.05c0,.42,0,.85-.05,1.3l-20.88,20.89c-.4,0-.81,0-1.24,0Z" style="fill:#fff"></path><path d="M191,179.39l-8.19,8.19q0-.63-.06-1.2l6.62-6.62Z" style="fill:#fff"></path></g></g></svg>