<svg xmlns="http://www.w3.org/2000/svg" viewBox="0 0 500 500"><g id="freepik--Floor--inject-3"><ellipse id="freepik--floor--inject-3" cx="250" cy="345.96" rx="244.16" ry="145.24" style="fill:#f5f5f5"></ellipse></g><g id="freepik--Plants--inject-3"><g id="freepik--plants--inject-3"><path d="M402.3,349.57s-1.63-18.28,2.75-33.22,13.16-26,23.24-29.86,21.17,3.25,12,13-26.81,22.16-28.73,49.23Z" style="fill:#2F2A71"></path><path d="M402.3,349.57s-1.63-18.28,2.75-33.22,13.16-26,23.24-29.86,21.17,3.25,12,13-26.81,22.16-28.73,49.23Z" style="fill:#fff;opacity:0.30000000000000004"></path><path d="M406.06,347.42h-.12a.57.57,0,0,1-.57-.58c.2-30.21,15.94-49.07,24.24-54.82a.57.57,0,0,1,.8.14.58.58,0,0,1-.15.8c-8.12,5.64-23.54,24.15-23.74,53.89A.58.58,0,0,1,406.06,347.42Z" style="fill:#fff"></path><path d="M401.8,378.35a29,29,0,0,1-5-5.31c-3.81-5.47-3.71-13.47-1.18-19.44a16.07,16.07,0,0,1,2.85-4.28,10.76,10.76,0,0,1,1.41-1.11,35.69,35.69,0,0,1,3.23-1.57c2.1-1.11,4.44-2.47,5.55-4.65,2-3.82,1.55-8.33,3.2-12.28a11,11,0,0,1,9.44-7.08c2.09-.23,4.18.53,6.23.83,4.32.64,8.39-3,11.92-5,3.78-2.1,8.21-3.74,12.38-2.59a10,10,0,0,1,6.66,13.34c-.89,2.26-2.56,4.11-3.77,6.22s-1.84,4.51-.85,6.77c.73,1.67,2,2.93,2.61,4.67,1.57,4.47.82,8.52-3.63,10.9-3.28,1.77-7.1,1.35-10.4,2.91-2.38,1.14-4.37,3.4-4.14,6.15.12,1.42.55,2.8.71,4.22,1.07,9.27-5,15.29-12.87,16.59a24.3,24.3,0,0,1-12.22-1.56c-2.7-1.25-6.05-2.55-8.31-4.51C404.34,380.47,403.05,379.43,401.8,378.35Z" style="fill:#2F2A71"></path><path d="M401.8,378.35a29,29,0,0,1-5-5.31c-3.81-5.47-3.71-13.47-1.18-19.44a16.07,16.07,0,0,1,2.85-4.28,10.76,10.76,0,0,1,1.41-1.11,35.69,35.69,0,0,1,3.23-1.57c2.1-1.11,4.44-2.47,5.55-4.65,2-3.82,1.55-8.33,3.2-12.28a11,11,0,0,1,9.44-7.08c2.09-.23,4.18.53,6.23.83,4.32.64,8.39-3,11.92-5,3.78-2.1,8.21-3.74,12.38-2.59a10,10,0,0,1,6.66,13.34c-.89,2.26-2.56,4.11-3.77,6.22s-1.84,4.51-.85,6.77c.73,1.67,2,2.93,2.61,4.67,1.57,4.47.82,8.52-3.63,10.9-3.28,1.77-7.1,1.35-10.4,2.91-2.38,1.14-4.37,3.4-4.14,6.15.12,1.42.55,2.8.71,4.22,1.07,9.27-5,15.29-12.87,16.59a24.3,24.3,0,0,1-12.22-1.56c-2.7-1.25-6.05-2.55-8.31-4.51C404.34,380.47,403.05,379.43,401.8,378.35Z" style="fill:#fff;opacity:0.45"></path><path d="M444.33,348a.5.5,0,0,1-.32,0,28.68,28.68,0,0,0-24.34,2.2.54.54,0,0,1-.74-.21.53.53,0,0,1,.21-.73,29.71,29.71,0,0,1,25.31-2.24.52.52,0,0,1,.27.71A.51.51,0,0,1,444.33,348Z" style="fill:#fff"></path><path d="M409.84,377.23a.5.5,0,0,0,.5-.49c.52-22.68,22.84-47.05,38-53.87a.51.51,0,0,0,.26-.67.52.52,0,0,0-.67-.25c-15.37,6.92-38,31.7-38.57,54.76a.52.52,0,0,0,.5.52Z" style="fill:#fff"></path></g><g id="freepik--plants--inject-3"><path d="M96.24,349.57s1.64-18.28-2.75-33.22-13.16-26-23.23-29.86-21.18,3.25-12,13S85,321.66,86.94,348.73Z" style="fill:#2F2A71"></path><path d="M96.24,349.57s1.64-18.28-2.75-33.22-13.16-26-23.23-29.86-21.18,3.25-12,13S85,321.66,86.94,348.73Z" style="fill:#fff;opacity:0.30000000000000004"></path><path d="M92.49,347.42h.12a.56.56,0,0,0,.56-.58C93,316.64,77.23,297.78,68.94,292a.57.57,0,0,0-.8.14.58.58,0,0,0,.14.8c8.13,5.64,23.55,24.15,23.75,53.89A.57.57,0,0,0,92.49,347.42Z" style="fill:#fff"></path><path d="M96.74,378.35a28.68,28.68,0,0,0,5-5.31c3.81-5.47,3.72-13.47,1.18-19.44a16.07,16.07,0,0,0-2.85-4.28,10.13,10.13,0,0,0-1.41-1.11,34.44,34.44,0,0,0-3.23-1.57c-2.1-1.11-4.43-2.47-5.55-4.65-1.95-3.82-1.54-8.33-3.19-12.28a11,11,0,0,0-9.44-7.08c-2.1-.23-4.19.53-6.23.83-4.32.64-8.4-3-11.92-5-3.79-2.1-8.22-3.74-12.39-2.59a10,10,0,0,0-6.66,13.34c.89,2.26,2.56,4.11,3.77,6.22s1.84,4.51.86,6.77c-.73,1.67-2,2.93-2.62,4.67-1.57,4.47-.81,8.52,3.63,10.9,3.29,1.77,7.11,1.35,10.4,2.91,2.39,1.14,4.37,3.4,4.14,6.15-.12,1.42-.55,2.8-.71,4.22-1.06,9.27,5,15.29,12.87,16.59a24.34,24.34,0,0,0,12.23-1.56c2.7-1.25,6-2.55,8.31-4.51C94.2,380.47,95.49,379.43,96.74,378.35Z" style="fill:#2F2A71"></path><path d="M96.74,378.35a28.68,28.68,0,0,0,5-5.31c3.81-5.47,3.72-13.47,1.18-19.44a16.07,16.07,0,0,0-2.85-4.28,10.13,10.13,0,0,0-1.41-1.11,34.44,34.44,0,0,0-3.23-1.57c-2.1-1.11-4.43-2.47-5.55-4.65-1.95-3.82-1.54-8.33-3.19-12.28a11,11,0,0,0-9.44-7.08c-2.1-.23-4.19.53-6.23.83-4.32.64-8.4-3-11.92-5-3.79-2.1-8.22-3.74-12.39-2.59a10,10,0,0,0-6.66,13.34c.89,2.26,2.56,4.11,3.77,6.22s1.84,4.51.86,6.77c-.73,1.67-2,2.93-2.62,4.67-1.57,4.47-.81,8.52,3.63,10.9,3.29,1.77,7.11,1.35,10.4,2.91,2.39,1.14,4.37,3.4,4.14,6.15-.12,1.42-.55,2.8-.71,4.22-1.06,9.27,5,15.29,12.87,16.59a24.34,24.34,0,0,0,12.23-1.56c2.7-1.25,6-2.55,8.31-4.51C94.2,380.47,95.49,379.43,96.74,378.35Z" style="fill:#fff;opacity:0.45"></path><path d="M54.21,348a.54.54,0,0,0,.33,0,28.68,28.68,0,0,1,24.34,2.2.54.54,0,0,0,.53-.94,29.74,29.74,0,0,0-25.32-2.24.54.54,0,0,0-.27.71A.55.55,0,0,0,54.21,348Z" style="fill:#fff"></path><path d="M88.71,377.23a.51.51,0,0,1-.51-.49c-.52-22.68-22.84-47.05-38-53.87a.49.49,0,0,1-.25-.67.5.5,0,0,1,.66-.25c15.38,6.92,38,31.7,38.57,54.76a.5.5,0,0,1-.49.52Z" style="fill:#fff"></path></g></g><g id="freepik--Shadows--inject-3"><ellipse id="freepik--Shadow--inject-3" cx="140.09" cy="412.22" rx="80.54" ry="46.5" style="fill:#e6e6e6"></ellipse><ellipse id="freepik--shadow--inject-3" cx="359.91" cy="412.22" rx="80.54" ry="46.5" style="fill:#e6e6e6"></ellipse></g><g id="freepik--Icons--inject-3"><g id="freepik--Symbol--inject-3"><rect x="23.02" y="204.14" width="13.97" height="20.81" rx="1.39" transform="translate(-50.18 13.3) rotate(-13.76)" style="fill:#f0f0f0"></rect><path d="M60.41,232.69l-24.08-9L31.38,203.5l17.2-19.09a3.87,3.87,0,0,1,6.63,1.67l10.3,42.06A3.87,3.87,0,0,1,60.41,232.69Z" style="fill:#f0f0f0"></path><path d="M76.64,203.12a15.49,15.49,0,0,0-11.23-11.34,2.32,2.32,0,0,0-2.68,1.3h0a2.28,2.28,0,0,0,1.49,3.16A10.88,10.88,0,0,1,68.81,215a2.29,2.29,0,0,0,.13,3.51h0a2.31,2.31,0,0,0,3-.1A15.49,15.49,0,0,0,76.64,203.12Z" style="fill:#f0f0f0"></path><path d="M85.8,200.88a24.93,24.93,0,0,0-16.22-17.66,2.35,2.35,0,0,0-2.91,1.21v0a2.3,2.3,0,0,0,1.39,3.13,20.29,20.29,0,0,1,8.16,33.32,2.28,2.28,0,0,0,.22,3.41h0a2.33,2.33,0,0,0,3.13-.26A24.91,24.91,0,0,0,85.8,200.88Z" style="fill:#f0f0f0"></path><path d="M36.69,237.71h0a2.23,2.23,0,0,1-.75-3.07l36.4-60.09a2.24,2.24,0,0,1,3.07-.75h0a2.24,2.24,0,0,1,.75,3.07L39.76,237A2.24,2.24,0,0,1,36.69,237.71Z" style="fill:#e0e0e0"></path></g><g id="freepik--symbol--inject-3"><path d="M475.8,185.9c-3-9.62-11.08-15.55-20.7-17.2a21.71,21.71,0,0,0-15.17,2.63c-4.06,2.55-8.19,7.32-7.81,12.41.05.66,1.78,1.43,2.06.57.63-1.88.64-2.91,1.69-4.61a20.08,20.08,0,0,1,4.36-4.79c3.35-2.63,7.94-3.41,12.17-3.26,8.43.32,15.59,4,19.31,11.79,3.6,7.5,2.13,16.51-2.89,23-2.69,3.48-5.52,5.57-9,8.19-3.72,2.82-6.47,4.73-8.82,8.19a42.22,42.22,0,0,1-3.57,5.12,7.23,7.23,0,0,1-5.93,2.24,13.9,13.9,0,0,1-7.09-2.7,9.36,9.36,0,0,1-3.79-7.48c-.09-1.75-2.11-1.38-2.19.63a8.65,8.65,0,0,0,1.36,5.9,13.34,13.34,0,0,0,5.35,4.93c4.06,1.9,9.82,2.59,13.48-.38,3.5-2.83,4.88-7.4,8.37-10.27,3.8-3.14,7.16-5.42,10.83-8.75C475,205.56,478.71,195.35,475.8,185.9Z" style="fill:#f0f0f0"></path><path d="M465.18,186.19c.46-.63.06-1.84-.17-2.48a5.57,5.57,0,0,0-.84-1.53c-2.63-3.51-7.66-5-11.89-4.56-5.72.52-12.85,5.1-12.35,11.6a6.7,6.7,0,0,0,5.32,6.06c2.8.46,5-1.28,7.6-2,3.82-1.11,5.33,2.94,5.38,6a15.15,15.15,0,0,1-.57,5.37c-.58,1.52-1.91,2-3.36,2.29a13.75,13.75,0,0,0-4,1.28c-1.57.93-2.05,2.42-2.89,3.95a6.55,6.55,0,0,1-2.34,2.45,3.35,3.35,0,0,1-2.9.1,4.53,4.53,0,0,1-2.17-2c-.29-.46-.45-1.17-.9-1.5-.92-.69-1.55.21-1.73,1a3.87,3.87,0,0,0,.79,3,6.36,6.36,0,0,0,5.89,2.26,8.4,8.4,0,0,0,5.35-3.31c.9-1.22,1.17-3,2.5-3.89a12.41,12.41,0,0,1,3.66-1.1,7.93,7.93,0,0,0,3.19-1.42,6.76,6.76,0,0,0,2.1-4.81c.31-3.2.48-6.72-1.45-9.48a6.7,6.7,0,0,0-7.82-2.59c-2.26.74-5.39,3.14-7.53,1-2.77-2.81-.48-7,2-9a12.51,12.51,0,0,1,9.88-2.56,11.83,11.83,0,0,1,4.42,1.78,9,9,0,0,1,2.76,3.15c.42.66,1,1.91,1.95,1Z" style="fill:#f0f0f0"></path><path d="M419,212.13h0a2.54,2.54,0,0,1,1.38-3.32l60.43-24.88a2.53,2.53,0,0,1,3.31,1.38h0a2.53,2.53,0,0,1-1.38,3.31l-60.43,24.89A2.54,2.54,0,0,1,419,212.13Z" style="fill:#e0e0e0"></path></g></g><g id="freepik--speech-bubbles--inject-3"><g id="freepik--speech-bubble--inject-3"><path id="freepik--speech-bubble--inject-3" d="M415.68,99.93c6.52-1,11.83-4.06,15.45-9.92,0,0,9.39,1.88,23.68,1,21.13-1.25,33.05-10.45,29.9-23-3.72-14.79-17.23-19.38-42.42-18.4C410.77,50.9,399.44,70.9,421.42,87,422.59,92,419.43,96,415.68,99.93Z" style="fill:#2F2A71"></path><path id="freepik--speech-bubble--inject-3" d="M415.68,99.93c6.52-1,11.83-4.06,15.45-9.92,0,0,9.39,1.88,23.68,1,21.13-1.25,33.05-10.45,29.9-23-3.72-14.79-17.23-19.38-42.42-18.4C410.77,50.9,399.44,70.9,421.42,87,422.59,92,419.43,96,415.68,99.93Z" style="fill:#fff;opacity:0.65"></path></g><g id="freepik--speech-bubble--inject-3"><path id="freepik--speech-bubble--inject-3" d="M88.37,88.73c-3.83-1.75-5.74-5.31-6.09-10.29,0,0,18.28-3,15.06-24.56-1.71-11.45-10.41-23.24-44.51-18.8-41.19,5.36-36.28,26.1-32,33.36,4.44,7.57,21.9,13.63,51.6,12C75.13,86,82.71,89.5,88.37,88.73Z" style="fill:#2F2A71"></path><path id="freepik--speech-bubble--inject-3" d="M88.37,88.73c-3.83-1.75-5.74-5.31-6.09-10.29,0,0,18.28-3,15.06-24.56-1.71-11.45-10.41-23.24-44.51-18.8-41.19,5.36-36.28,26.1-32,33.36,4.44,7.57,21.9,13.63,51.6,12C75.13,86,82.71,89.5,88.37,88.73Z" style="fill:#fff;opacity:0.65"></path></g></g><g id="freepik--character-2--inject-3"><g id="freepik--Character--inject-3"><g id="freepik--Bottom--inject-3"><path d="M402.44,379.16c.52,2.76,1.48,5.95,2.31,11.6s-.41,5.88,3.34,20c2.25,8.49,1.86,11.87-3.31,19-5.54,7.68-11.35,6.15-15.16-2.35-3.26-7.26-3.08-10.64-3.12-18.16s-.12-9.72-.48-15.69c-.32-5.26.11-8.86-.23-12.89Z" style="fill:#37474f"></path><path d="M404.23,399.78c-1.07-7.29-1.34-14.85-1.73-19.78-.89-11,1.29-32.88-.34-49.48l-28-2.75c1,6.47,8.79,35.74,11.66,53.41,0,0,1.18,24,2.76,34.55a2,2,0,0,0,2.85,1.56,18.48,18.48,0,0,1,12.67-.86,2,2,0,0,0,2.7-1.93C406.71,410.59,405,405.25,404.23,399.78Z" style="fill:#ffbda7"></path><path d="M321.09,327.28c.65,23,.91,43.34.23,49.33s-1,8-2.4,12.21-3.86,9.82-6.08,12.57c0,0-6.4,7.16-4.92,7.85s15.27,1.81,21.39-.19,6.64-7.25,8.51-16.84,3.35-23.57,3.35-23.57a6.28,6.28,0,0,1-.67-1.6c-.88-2.73,1.45-9.94,1.92-16.89Z" style="fill:#ffbda7"></path><path d="M347.63,382.74c-.35,2.24-2.21,4.8-3,8.29a62.55,62.55,0,0,0-1.51,12.11c-.15,5-.18,5.68-.18,5.68l-1.54-.05s.23-7.19.32-10.35-.14-5.47-1.64-5.86C340.1,392.56,340.17,382.51,347.63,382.74Z" style="fill:#263238"></path><path d="M340.89,367.36c1.06,2.61,4.5,6.23,6,8.71a9.45,9.45,0,0,1,1.28,4.29,4.54,4.54,0,0,1-1.28,3.42,51.73,51.73,0,0,0-4.66,5.41c-1.82,2.57-5.22,8.55-6.1,12.74s-1.36,7.87-4.88,10c-2.75,1.68-14.15,4.2-19.93,4.7-7.89.7-10-3.06-7.14-6.17s7.78-8.42,8.67-9.09a14.41,14.41,0,0,1,7.38.85c4.47,1.8,5.94,4.34,10.53,1.91,4.16-2.2,5.66-10,5-21.22C335.08,370.23,340.89,367.36,340.89,367.36Z" style="fill:#37474f"></path><path d="M379.68,169.07c.58,2.88,1.22,5.57,2.29,7,6.5,8.69,13.17,19.23,14.62,35.62a723,723,0,0,1,2.21,77.77c.36,3.5,3.2,11.92,4.05,31.86.68,15.9.2,40.63.2,40.63s-11.29,5.79-21.28,2.22c-4.25-15.09-11.58-51.43-15.82-68.71-4.48-18.22-9.11-40-9.11-40l-6.1,32.12a92.36,92.36,0,0,1,.23,20.67c-1,10.64-8.76,48.26-8.76,48.26s-12.57,4.14-21.22-1.62c0,0-2-52.94-2.28-64.62s.34-81.17,7-111.86a66.16,66.16,0,0,0,.3-7.11C334.48,178.08,368.67,176.79,379.68,169.07Z" style="fill:#37474f"></path><path d="M403.15,356.44c-4.25,4.06-17.5,5.35-22.76,2.68l1.77,8.23s3.48,2.26,11,1.44,9.88-3.89,9.88-3.89Z" style="fill:#455a64"></path><path d="M343.36,351.26c-4.46,1.59-17.85,1.13-22.82-1.8l.37,7.1s2.82,2.58,10.37,3.21,10.79-1.56,10.79-1.56Z" style="fill:#455a64"></path><path d="M356.84,255.49,351,216.44a24.74,24.74,0,0,1-20-9.06s-.09,9.8,16.11,13.92l6.75,36-3.1,30.35Z" style="fill:#263238"></path><path d="M325.76,177.87s8.25,6,27.36,4.73,28.24-7.51,28.11-7.84h0a26.46,26.46,0,0,1-1.4-4.95c-.07-.29-.12-.54-.15-.73-11,7.72-45.2,9-53.7,2.26,0,0,0,4.57-.22,6.54Z" style="fill:#263238"></path></g><g id="freepik--Top--inject-3"><g id="freepik--Hair--inject-3"><path d="M392.52,83.59c2.24-4.32,4-10,0-13.92,1.76-4.76,3-10.94-1.88-14.18.11-6.27-3.17-10.27-7.94-11.94-4.51-1.59-9.43-1.09-12.9,3l3.35,1.58c.49,4.27,2,8.42,5.91,10.58-1.59,4.94-.7,9.06,4.29,11.34-2.75,4.93-3,10.51.7,15.06-1.67,4.15-1,7.62,1.75,11.11-2.89,3.46-1.18,8.35,2.07,11a8.62,8.62,0,0,0-2.51,6.92,5.85,5.85,0,0,0,5.46,5.65c-1.55-1.23-1.71-2.07-.9-4.43s2.21-5.16,0-7.76c2.17-3.73,4.26-8,1.66-11.92C393.49,91.75,395,87.57,392.52,83.59Z" style="fill:#263238"></path><path d="M371.82,47.53c1.19-2,3.81-1.22,6,.61s4.19,5,3,6.69C378.79,57.71,370.68,49.52,371.82,47.53Z" style="fill:#2F2A71"></path></g><g id="freepik--Chest--inject-3"><path d="M337.14,107.78c-8.37.61-15,3-22.51,10.24-11,10.61-33.27,32-32.26,42.25l19.42-.79,31.55-19.07Z"></path><path d="M363.82,102.6,381.08,108c3,1,14.16,7.85,10.25,24.7-1.3,5.58-3.06,13.4-4.65,21.22-1.22,6,3.25,17.47,6.86,35.78,0,0-14.8,11.77-44.21,8.45-22.44-2.53-24.88-10.93-24.88-10.93.63-20.89,2.48-29,2.44-36.9,0,0-3.28-4-3.42-11.1-.15-7.45,1.81-11.45,8.49-19.9a142.9,142.9,0,0,1,12.22-13.6Z" style="fill:#455a64"></path><path d="M331.91,128.58c-5.19,11.82-1.68,79.26-2.15,74.2,0,0-9.66-3.74-10.57-7,0-12.14,2.24-36.54,2.38-44.88.16-9.59-.55-16,1.89-22.14,1.79-4.54,9.16-15.84,13.68-21,2.32-.87,4.43-1.17,7-2.1C339.4,109.83,333.88,121.49,331.91,128.58Z" style="fill:#2F2A71"></path><path d="M331.91,128.58c-5.19,11.82-1.68,79.26-2.15,74.2,0,0-9.66-3.74-10.57-7,0-12.14,2.24-36.54,2.38-44.88.16-9.59-.55-16,1.89-22.14,1.79-4.54,9.16-15.84,13.68-21,2.32-.87,4.43-1.17,7-2.1C339.4,109.83,333.88,121.49,331.91,128.58Z" style="opacity:0.2"></path><path d="M350.81,106.35c-3.27,2.24-17.89,12.29-20.79,31.85,0-8.63,3.24-19.19,6.32-24.2,3.76-6.1,8.75-11.8,14.35-13.46Z" style="fill:#263238"></path><path d="M371.4,102.51s.06,1.16-.09,4.83-6.83,30.76-6.93,44a431.33,431.33,0,0,0,3.21,53.46s21.42,1.94,29.31-8.71c0,0-2.84-13.29-5.48-29.47-1.57-9.58,3-31.47,1.38-45.35-.69-5.79-.29-11-4.64-12.36-3.59-1.13-9.31-2.64-9.31-2.64Z" style="fill:#2F2A71"></path><path d="M371.4,102.51s.06,1.16-.09,4.83-6.83,30.76-6.93,44a431.33,431.33,0,0,0,3.21,53.46s21.42,1.94,29.31-8.71c0,0-2.84-13.29-5.48-29.47-1.57-9.58,3-31.47,1.38-45.35-.69-5.79-.29-11-4.64-12.36-3.59-1.13-9.31-2.64-9.31-2.64Z" style="opacity:0.2"></path><path d="M388.16,109c8.46,2.15,11.17,6.36,14.48,13.28s13.7,34.87,16.24,40.89,1.47,15.21-.83,17.12-21.88-16.52-21.88-16.52L382.7,139.06S377.6,116.42,388.16,109Z" style="fill:#263238"></path><path d="M370.52,99c1.64-.08,2.07.93,4.24,3.4a31.75,31.75,0,0,0,4.09,3.92c-2,12.2-11.61,27.4-14.35,41.72-.12-11.59,3.79-27.64,6.72-45.35Z" style="fill:#263238"></path></g><g id="freepik--Head--inject-3"><path d="M350.2,89.35c-1-2-1.88-4.29-3.5-5.92S343,81,341.12,79.73l-6-4c-7.21-4.18-6.53-13.76-4.58-18.69,4.36-11,16.54-14.8,24-15,14.17-.3,21,3.58,22.17,10.95a9.32,9.32,0,0,1,7.8,4c3.44,4.76,3,12,1.44,17.13-2.44,8-5.06,10.59-8.34,13.35a23.19,23.19,0,0,0-6.94,8.83Z" style="fill:#37474f"></path><path d="M374.36,89.68c2.55.46,4.57-.82,6.1-2.53,3.41-3.79,3.7-7.63,2.09-10.18-1.33-2.09-4.57-3.42-6.83-2-2.42,1.54-2.49,2.78-3.4,4.5s-4.45,1.6-5.34-5.33c-.83-6.46-1.85-12.38-5-15.28-4.75-4.33-10-3.59-11.87-1-1.95-3-4.89-4.21-8.11-2.46s-5.65,6.58-6.69,18.86c-1.06,12.51,1.93,20.29,4.81,22.38,2.18,1.58,4.62,2.29,9.32,2.47l-.14,8.3c-3.68,5.26,11.84,9.54,20.9,1.37l1.05-6.11.06-15A4,4,0,0,0,374.36,89.68Z" style="fill:#ffbda7"></path><path d="M354.8,73.49a2.2,2.2,0,0,0,2.6,1.09,1.63,1.63,0,0,0,1.34-2.1,2.18,2.18,0,0,0-2.59-1.08A1.63,1.63,0,0,0,354.8,73.49Z" style="fill:#263238"></path><path d="M356.89,71.32c1.3,0,2.07,1.77,3.32,1.07a1.87,1.87,0,0,1-2.52,1C357.11,73.13,356.89,71.32,356.89,71.32Z" style="fill:#263238"></path><path d="M338.4,67.55l4.84-1a2.36,2.36,0,0,0-2.81-2A2.59,2.59,0,0,0,338.4,67.55Z" style="fill:#263238"></path><path d="M343.39,73a2.19,2.19,0,0,1-2.64,1,1.64,1.64,0,0,1-1.26-2.16,2.19,2.19,0,0,1,2.64-1A1.64,1.64,0,0,1,343.39,73Z" style="fill:#263238"></path><path d="M341.39,70.78c-1.3,0-2.14,1.69-3.36.94a1.87,1.87,0,0,0,2.47,1.14C341.1,72.58,341.39,70.78,341.39,70.78Z" style="fill:#263238"></path><path d="M355.64,66.86l4.9,2a2.53,2.53,0,0,0-1.36-3.42A2.78,2.78,0,0,0,355.64,66.86Z" style="fill:#263238"></path><path d="M353.81,85.42l-7,1.27a3.59,3.59,0,0,0,4.49,2.81A3.36,3.36,0,0,0,353.81,85.42Z" style="fill:#b16668"></path><path d="M349.29,89.44a3.76,3.76,0,0,1,4.18-2.81,3.37,3.37,0,0,1,.34.09,3.17,3.17,0,0,1-2.55,2.78A4.07,4.07,0,0,1,349.29,89.44Z" style="fill:#f0997a"></path><polygon points="350.31 68.99 349.03 83.14 341.38 80.25 350.31 68.99" style="fill:#f0997a"></polygon><path d="M349.41,99.13a44,44,0,0,0,13.33-2.55c1.56-.62,3.7-3.38,5.47-6.47,0,0-1.33,6.13-4.71,8.17-5.14,3.11-14.14,3.37-14.14,3.37Z" style="fill:#f0997a"></path></g><g id="freepik--Mask--inject-3"><path d="M362.36,80.69c-1.08,0-5.14-1.07-9.54-2.69-5.1-1.88-4.48-2.56-9.16-1.31a82.38,82.38,0,0,0-9.19,3.15C334.24,93,338.15,97.36,342.21,99c2.24.9,13.13,2,20.42-1.72s7.15-14.56,7.15-17.54C368.53,80.44,365,80.64,362.36,80.69Zm-7.62,11.55c-2.67,2.3-11.2,1.6-13.65-.64-2.07-1.84-2.31-7.48-1.61-9.62,1.92-2.08,12.07-1.91,16.52,1.16C356.78,85.42,356.44,90.74,354.74,92.24Z" style="fill:#2F2A71"></path><path d="M343.85,93a7.4,7.4,0,0,1-2.76-1.36c-2.07-1.84-2.31-7.48-1.61-9.62.68-.74,2.41-1.18,4.54-1.33a34.84,34.84,0,0,1,1.12-4.33l-1.48.37a82.38,82.38,0,0,0-9.19,3.15C334.24,93,338.15,97.36,342.21,99a15.49,15.49,0,0,0,3.68.69A18.51,18.51,0,0,1,343.85,93Z" style="opacity:0.1"></path><path d="M372.81,78.48c-2.15,2-8.8,3.7-15.52,1.52-7.56-2.46-8.26-3.48-12.66-2.91-3,.39-6.6,2-10.16,2.75a2.88,2.88,0,0,1,.09-1.51s2.39-.54,6.44-1.85c3.72-1.19,5.21-2,9.51-.41s8.83,3.12,12.12,3.24c6.17.21,10.1-3.21,11.63-3.18A8.26,8.26,0,0,0,372.81,78.48Z" style="fill:#263238"></path><path d="M366.33,94.1,371.38,92a4.68,4.68,0,0,0,0-2.7l-3.19,1.32A19.09,19.09,0,0,1,366.33,94.1Z" style="fill:#263238"></path><path d="M354.74,92.24c-2.67,2.3-11.2,1.6-13.65-.64-2.07-1.84-2.31-7.48-1.61-9.62,1.92-2.08,12.07-1.91,16.52,1.16C356.78,85.42,356.44,90.74,354.74,92.24Z" style="fill:#2F2A71;opacity:0.2"></path><path d="M340.16,82.36c-.69,2.14-.46,7.78,1.62,9.62a2.2,2.2,0,0,0,.54.39,4.73,4.73,0,0,1-1.22-.77c-2.08-1.85-2.32-7.48-1.63-9.61,1.88-2,11.58-1.93,16.19.93C350.84,80.44,342,80.43,340.16,82.36Z" style="opacity:0.2"></path><path d="M349.33,94.86l-.92,0a.11.11,0,0,1-.11-.12.12.12,0,0,1,.12-.12h0c.68,0,1.32,0,1.93,0h0a.12.12,0,1,1,0,.24C350,94.85,349.68,94.86,349.33,94.86Zm-2.85-.16h0c-.7-.07-1.35-.17-1.93-.28a.13.13,0,0,1-.1-.14.13.13,0,0,1,.15-.1c.57.12,1.22.21,1.9.29a.11.11,0,0,1,.11.13A.12.12,0,0,1,346.48,94.7Zm5.81-.06a.13.13,0,0,1-.12-.1.12.12,0,0,1,.1-.14,11,11,0,0,0,1.86-.47.12.12,0,1,1,.08.22,9.76,9.76,0,0,1-1.9.48Zm-9.6-.74h0a7.09,7.09,0,0,1-1.74-.92.12.12,0,0,1,0-.17.11.11,0,0,1,.16,0,6.78,6.78,0,0,0,1.68.88.12.12,0,0,1,0,.23Zm13.18-.66a.14.14,0,0,1-.1,0,.11.11,0,0,1,0-.16,4.11,4.11,0,0,0,.47-.46,3.42,3.42,0,0,0,.56-1.07.13.13,0,0,1,.16-.08.12.12,0,0,1,.07.15,3.41,3.41,0,0,1-.61,1.15,2.91,2.91,0,0,1-.5.49A.11.11,0,0,1,355.87,93.24Zm-16.11-1.72a.14.14,0,0,1-.11-.06,10.75,10.75,0,0,1-.78-1.8.12.12,0,0,1,.08-.15.12.12,0,0,1,.15.07,10.27,10.27,0,0,0,.76,1.76.11.11,0,0,1,0,.16Zm17.61-1.76h0a.11.11,0,0,1-.1-.13c.08-.59.14-1.24.17-1.93a.13.13,0,0,1,.12-.11h0a.11.11,0,0,1,.11.13c0,.69-.09,1.34-.17,1.94A.13.13,0,0,1,357.37,89.76Zm-18.85-1.9a.12.12,0,0,1-.12-.1c-.11-.58-.2-1.21-.28-1.93a.12.12,0,0,1,.24,0c.08.71.17,1.33.28,1.91a.13.13,0,0,1-.1.14Zm19-2a.12.12,0,0,1-.12-.12,14,14,0,0,0-.16-1.91v-.07a.12.12,0,0,1,.11-.13.12.12,0,0,1,.13.11v0a12.77,12.77,0,0,1,.17,1.94.12.12,0,0,1-.11.13ZM338.08,84a.12.12,0,0,1-.12-.12c0-.21,0-.4,0-.58a5.12,5.12,0,0,1,.15-1.38.12.12,0,0,1,.15-.09.12.12,0,0,1,.08.15,5.22,5.22,0,0,0-.14,1.32c0,.17,0,.36,0,.57a.13.13,0,0,1-.12.13Zm18.36-1.73-.07,0a7.88,7.88,0,0,0-1.68-.89.11.11,0,0,1-.07-.15.12.12,0,0,1,.16-.07,8.79,8.79,0,0,1,1.74.91.12.12,0,0,1,0,.17A.12.12,0,0,1,356.44,82.28ZM339.5,80.74a.12.12,0,0,1-.11-.07.11.11,0,0,1,.06-.16,13.35,13.35,0,0,1,1.41-.44l.48-.11a.12.12,0,0,1,.14.1.13.13,0,0,1-.09.14,4.46,4.46,0,0,0-.46.11,12.52,12.52,0,0,0-1.39.42Zm13.41,0h-.06a13.5,13.5,0,0,0-1.85-.46.12.12,0,0,1-.09-.14.13.13,0,0,1,.14-.1,14.9,14.9,0,0,1,1.89.47h0a.13.13,0,0,1,.09.12A.12.12,0,0,1,352.91,80.72ZM349.1,80h0c-.62-.06-1.26-.1-1.93-.13a.12.12,0,0,1-.12-.12.13.13,0,0,1,.12-.12h0c.67,0,1.32.07,1.94.13a.12.12,0,0,1,.11.13A.11.11,0,0,1,349.1,80Zm-5.82,0a.13.13,0,0,1-.12-.11.12.12,0,0,1,.11-.13c.61-.06,1.27-.09,2-.1h0a.11.11,0,0,1,.12.11.13.13,0,0,1-.12.13c-.67,0-1.32,0-1.93.1Z" style="fill:#fafafa"></path></g><g id="freepik--Hands--inject-3"><path d="M343.22,121.37c-.55-2,.87-5,3.51-2.21s12.17,14.24,14.2,15.53,4.63,1.06,7.49,2.64,7.68,6.69,10.7,7.58a16.25,16.25,0,0,1,7.59,4.21c2.73,2.51,8.11,4.84,13,7.45,5.62,3,10.14,4,13.63,7.17s8.31,14.45,3.5,17.77-13.91,1.8-20.53-3.07c-4.52-3.31-6.6-6.39-12.83-13-2.9-3.09-5.14-5.48-5.91-6.17-2.42-2.16-4.43-1.48-7.88-1.65s-9.16-1.35-11-2.53a16.9,16.9,0,0,1-5.24-6.25c-.64-1.75,2.07-3.06,2.07-3.06l-.42-3.9s-6.87-7.2-10.68-11.94a15.76,15.76,0,0,1-3.35-6A2,2,0,0,1,343.22,121.37Z" style="fill:#ffbda7"></path><path d="M356.08,151.9c1.28.56,2.35-.23,1.89-1.12l.55.91c-.18.79-1.12.93-.92,1.8s1.59,1.82,1.69,1.89a4,4,0,0,1-.62-.32,17.5,17.5,0,0,1-4.26-4.48A4,4,0,0,0,356.08,151.9Z" style="fill:#f0997a"></path><path d="M342.81,122.67c-.92-.82-1.49-.32-1.62-.18a1.85,1.85,0,0,1,2-1.12,34.69,34.69,0,0,0,2.09,3.11c1.53,2.1,7.8,9.62,9,10.25s4.91-.33,7.79.53l.54.19h0c-3.7-.15-6,.08-6.87,1s-.95,2.93-.68,5.43c-1.38-1.77-1.17-5.71-1.17-5.71a113,113,0,0,1-7.65-8.53C344.27,124.85,343.85,123.6,342.81,122.67Z" style="fill:#f0997a"></path><path d="M353.71,127.09l.66.75c-1,2.44-4.12,6.44-5,7.86-1.74-1.94-3.58-4-5-5.79a23.85,23.85,0,0,1-2.22-3.24,1.39,1.39,0,0,1-.14-.25c1.12-1.6,4.32-5.49,5.3-6.6C348.78,121.41,351.24,124.28,353.71,127.09Z" style="fill:#f0997a"></path><path d="M357.14,149.67a4.48,4.48,0,0,1,.92,1.39c.1.24-.09.85,0,1.09a1.87,1.87,0,0,0,1.11,1.17,2,2,0,0,0,2.82-1c.7,1.22,1.63,1.59,2.51,2.59s2.8,1,3.09-.37a5.35,5.35,0,0,0,0-2.07,13.21,13.21,0,0,0-.47-1.46,7.62,7.62,0,0,0,.84.88c2.4,2.15,4.85,2.65,5.84,3.64-.19-1.33-3-2.18-4.69-3.52a7.67,7.67,0,0,1-2.79-5.33,3.87,3.87,0,0,1,.28-1.62l-1,1.72s-.51-1.4-1.3-1.79c.44,1.07,1,2.57.63,3.64a3.43,3.43,0,0,1-1,1.5,2.34,2.34,0,0,1,2.67,1.48c.94,1.79.44,3.05-.41,3.19s-1.21-.49-1.72-1c-.77-.73-1.67-1.46-1.67-1.46-1.09-1.23-1-1.32-1.27-2.19a33.9,33.9,0,0,1-.63-4,3.39,3.39,0,0,1,1.15-2.21c.79-.81,2.11-2,2.11-2a4.8,4.8,0,0,1-2.66-.15,3.55,3.55,0,0,1-1.38-1.72A6.94,6.94,0,0,1,360,142c-.21.67-.65,2.08-1.47,2.41,1,.08,1.25.78,1.53,1.45s1.15,5.34,1.28,6.15a1.41,1.41,0,0,1-1.27.73,1.35,1.35,0,0,1-1.21-.58A15.61,15.61,0,0,0,357.14,149.67Z" style="fill:#f0997a"></path><path d="M360.35,141a3.22,3.22,0,0,1-.44,3.06,3.12,3.12,0,0,1,.78,1.45,5.68,5.68,0,0,1,1.13-1.76,14.7,14.7,0,0,1,1.77-1.51S361.33,142.86,360.35,141Z" style="fill:#b16668"></path><path d="M355.5,145.75a7.12,7.12,0,0,0,.83,2.72c.49.8,1.23,1.45,1.73,2.29.27.4.49.83.77,1.21a1.46,1.46,0,0,0,2.31.2,2,2,0,0,0,.47-1.24.13.13,0,0,1,.14-.12.13.13,0,0,1,.11.08,6.32,6.32,0,0,0,1.92,2.11,8.72,8.72,0,0,1,1.1,1,1.7,1.7,0,0,0,1.14.65.94.94,0,0,0,.87-.8,2.5,2.5,0,0,0,0-1.38,5.78,5.78,0,0,0-1.59-2.36h0a.14.14,0,0,1,0-.09l.34-2.7a.09.09,0,0,1,.1-.08.1.1,0,0,1,.07.09,5.86,5.86,0,0,0,.62,2.48,7.47,7.47,0,0,0,1.56,2.07,6.32,6.32,0,0,1-2.35-4.56l.17,0-.3,2.71,0-.1a6.15,6.15,0,0,1,1.68,2.46,2.74,2.74,0,0,1,.06,1.53,1.61,1.61,0,0,1-.38.7,1.06,1.06,0,0,1-.77.31,2,2,0,0,1-1.37-.73,11,11,0,0,0-1.05-1,6.46,6.46,0,0,1-2-2.24l.25,0a2.27,2.27,0,0,1-.55,1.39,1.73,1.73,0,0,1-1.4.53,1.71,1.71,0,0,1-1.25-.78c-.29-.4-.51-.83-.77-1.23-.47-.82-1.2-1.47-1.67-2.33A7.13,7.13,0,0,1,355.5,145.75Z" style="fill:#b16668"></path><path d="M358.05,150.73a.89.89,0,0,1-.4,1.25,1.72,1.72,0,0,1-1.35.06,4,4,0,0,1-2-1.68,4,4,0,0,0,2.07,1.58,1.61,1.61,0,0,0,1.24-.09.73.73,0,0,0,.31-1Z" style="fill:#b16668"></path><path d="M378.82,155.64c1.77,1.74,1.33,6.22,4.68,9.77-2.9-3.09-5.14-5.48-5.91-6.17-2.09-1.87-3.88-1.61-6.56-1.62C374.47,157.07,377.06,153.91,378.82,155.64Z" style="fill:#f0997a"></path><path d="M313.37,140.05c2.75-1.78,3.65-2.51,5.71-4.05a24.62,24.62,0,0,0,4.9-4.63c1.38-1.86,2.43-2.66,3.77-2.34a6.11,6.11,0,0,0,3.11.2c.94-.23,1.77-.2,3.4.88s3.22,1.77,4.75.26,7.56-8.62,9.35-11.05,3.26-2.87,4.08-1.74,0,3.7,0,3.7a2.25,2.25,0,0,1,2.47,1.44c.83,1.8-.53,4.44-3.08,7.86s-4.18,5.72-5,6.51-1.34,1.48-2.25,2.37c-.4,1.09-5.67,5.67-5.67,5.67a4.1,4.1,0,0,1-.53,4.27,5.31,5.31,0,0,1-2.91,2.13c-.56.21-1.15.4-1.73.58a16.21,16.21,0,0,1-3,.52,29.42,29.42,0,0,1-6.15-.33c-3.52-.3-6.83,1.59-9.58,3.58-1.38,1-10.95,10-16,11.48s-14.5,1-16.15-2.2-.74-7.8,4.19-12.93,10-6.46,16.14-8.32C310.2,141.82,311.67,141.15,313.37,140.05Z" style="fill:#ffbda7"></path><path d="M306.24,163.13c2-1.81,2.78-3.18,5.85-6.79s7.1-4.93,7.49-10.93a7.92,7.92,0,0,1,2.85-5.81h0c1.11-1.1,2.5-2,2.63-2.38.19-.57-.09-2.21.38-3-.11,1.22.64,3,.59,3.5a34.31,34.31,0,0,1-.9,4c-.61,2.34.24,3.26,1,3.65a.72.72,0,0,0,.62.05,6,6,0,0,0,0,1.21c.17,1.2,1.06,1.18,1.55,1.18s1.21-1,2.12-1.92a29.12,29.12,0,0,0,2-2.37,16.6,16.6,0,0,0,.2,1.71,35.68,35.68,0,0,0,1.72,3.53,2.68,2.68,0,0,1-1,3.15,3.42,3.42,0,0,0-.39.38c-.73.16-1.48.23-2.22.32a29.42,29.42,0,0,1-6.15-.33c-3.52-.3-6.83,1.59-9.58,3.58C313.67,156.88,309.71,160.53,306.24,163.13Z" style="fill:#f0997a"></path><path d="M342.83,135.65a3.28,3.28,0,0,0-.05.83c0,.32.14.74.15,1s-.24,0-.37-.07a3.17,3.17,0,0,1-.83-1.2,1.85,1.85,0,0,1,.25-2,46.34,46.34,0,0,0,4.74-5.07c1.38-1.74,4.74-5.66,5.74-7.88a2.25,2.25,0,0,1,2.47,1.44,1.14,1.14,0,0,0-1.14-.4c-.85.09-1.6,1.47-2.88,3.31s-3.88,4.69-5.72,6.76a14,14,0,0,0-2.06,2.42A3.12,3.12,0,0,0,342.83,135.65Z" style="fill:#f0997a"></path><path d="M341.8,134.4c1-1,1.93-2.06,2.88-3.1s1.86-2.12,2.73-3.24,1.79-2.19,2.66-3.3a25.85,25.85,0,0,0,2.39-3.48,19.52,19.52,0,0,1-2.2,3.63c-.83,1.15-1.72,2.25-2.6,3.35a42.45,42.45,0,0,1-2.8,3.2C343.88,132.48,342.87,133.47,341.8,134.4Z" style="fill:#b16668"></path><path d="M330.26,130.07c-.85.26-1.23-.35-1.9-.9a5.33,5.33,0,0,0,2.5.06,3.79,3.79,0,0,1,.88-.11C331.09,129.38,331.09,129.82,330.26,130.07Z" style="fill:#f0997a"></path><path d="M336.84,137.08a14.34,14.34,0,0,0-.84-6h0a2.65,2.65,0,0,0,2.88-.55h0c-.26.28-1.23,1.09-1.22,2.1,0,2.9.52,4.38.48,5.17-.06,1.39-1.09,2.29-.51,3.33s1.34,2.2,2.52,1.91a12,12,0,0,0,3.12-1.87l0,0c-.92.91-1.83,1.78-2.74,2.61l-1,.88c-.19.16-.37.33-.56.48h0a3.61,3.61,0,0,0-.82-1.3,28.21,28.21,0,0,0-2.27-3,4.77,4.77,0,0,0-.91-.47A8.08,8.08,0,0,0,336.84,137.08Z" style="fill:#f0997a"></path><path d="M339,145.13a2.58,2.58,0,0,0-.59-.94l-.73-.85c-.24-.29-.48-.58-.71-.88s-.41-.65-.63-.93a1.92,1.92,0,0,0-1.74-.95,2.51,2.51,0,0,0-1.44,1.45,4.1,4.1,0,0,0-.5,2.08,5.22,5.22,0,0,0,.53,2.11c.3.67.76,1.27,1.06,2a2.78,2.78,0,0,1,.19,2.2,2.71,2.71,0,0,0-.33-2.13c-.32-.67-.8-1.25-1.14-1.94a5.29,5.29,0,0,1-.61-2.21,4.6,4.6,0,0,1,.51-2.24,2.81,2.81,0,0,1,1.68-1.59,2.13,2.13,0,0,1,2,1.09c.23.32.38.66.6,1s.43.6.66.9l.67.9A2.57,2.57,0,0,1,339,145.13Z" style="fill:#b16668"></path><path d="M330.75,132.63a20,20,0,0,1,.41,3.28,7.19,7.19,0,0,1-.16,1.66,7,7,0,0,1-.62,1.55l-1.48,2.95c-.25.49-.5,1-.72,1.48a7.84,7.84,0,0,1-.76,1.5,1.42,1.42,0,0,1-.72.56,1.07,1.07,0,0,1-.88-.24,2.16,2.16,0,0,1-.94-1.42,7.21,7.21,0,0,1,.43-3.3,20.37,20.37,0,0,0,.64-3.2,12.32,12.32,0,0,1-.51-3.25,12.4,12.4,0,0,0,.63,3.23,6.09,6.09,0,0,1-.2,1.66l-.37,1.61a7.31,7.31,0,0,0-.37,3.19,2,2,0,0,0,.85,1.25.79.79,0,0,0,.65.18,1.17,1.17,0,0,0,.54-.46,10.13,10.13,0,0,0,.74-1.43c.23-.51.49-1,.74-1.49l1.54-2.92a7.16,7.16,0,0,0,.63-1.49,7.31,7.31,0,0,0,.18-1.62A20.13,20.13,0,0,0,330.75,132.63Z" style="fill:#b16668"></path><path d="M328.09,148a1.29,1.29,0,0,1-.62-.17,2.22,2.22,0,0,1-.88-2.4.16.16,0,0,1,.19-.13.17.17,0,0,1,.13.19,1.88,1.88,0,0,0,.72,2.06.84.84,0,0,0,1-.11c.94-.86,1.83-1.82,2.65-2.73a6.73,6.73,0,0,0,1-1.36.16.16,0,1,1,.29.12,6.22,6.22,0,0,1-1.09,1.45c-.83.92-1.72,1.88-2.67,2.76A1.2,1.2,0,0,1,328.09,148Z" style="fill:#b16668"></path><path d="M327.34,136.06a.47.47,0,0,1,.12-.19,2.08,2.08,0,0,1,1-.62,1.48,1.48,0,0,1,1.56.57c.15.22.32.63-.09.58-.22,0-.41-.15-.61-.19a3.81,3.81,0,0,0-1.16-.15c-.16,0-.3.09-.46.12s-.31.06-.37,0A.08.08,0,0,1,327.34,136.06Z" style="fill:#f0997a"></path><path d="M333.35,136a.61.61,0,0,1,.16-.16,2,2,0,0,1,1.1-.43,1.45,1.45,0,0,1,1.44.82c.11.25.21.68-.18.56-.21-.07-.38-.21-.58-.29a3.35,3.35,0,0,0-1.11-.35,3.75,3.75,0,0,0-.47.05c-.09,0-.32,0-.36-.11A.14.14,0,0,1,333.35,136Z" style="fill:#f0997a"></path><path d="M347.51,123.34a.19.19,0,0,1,.11,0c.16,0,.31.21.44.3a3.71,3.71,0,0,0,.54.33c.25.11.48.21.73.3s.56.19.59.4a.52.52,0,0,1-.41.52,2.1,2.1,0,0,1-1.36-.56,2,2,0,0,1-.52-.67C347.58,123.84,347.36,123.45,347.51,123.34Z" style="fill:#f0997a"></path><path d="M344.19,127.81c.09,0,.15.16.21.22a3.48,3.48,0,0,0,.71.62,6.79,6.79,0,0,1,1,.47c.2.17,0,.49-.14.61s-.6,0-.81-.15l-.3-.2a4.1,4.1,0,0,1-.5-.52,1.74,1.74,0,0,1-.38-.69c0-.13,0-.44.19-.38Z" style="fill:#f0997a"></path><path d="M350.18,127.64a.21.21,0,0,1,.15,0l.11.08a1.06,1.06,0,0,1,.23.19,4.51,4.51,0,0,0,.54.35c.37.2.78.28,1.15.45a.3.3,0,0,1,.12.35.41.41,0,0,1-.23.32.48.48,0,0,1-.33-.05c-.11,0-.23-.08-.34-.12a2.62,2.62,0,0,1-.59-.33,2.47,2.47,0,0,1-.5-.47,2.09,2.09,0,0,1-.23-.29,1.47,1.47,0,0,1-.14-.45S350.13,127.63,350.18,127.64Z" style="fill:#f0997a"></path><path d="M347.12,131.94a1.29,1.29,0,0,0,.21.07l.23.1a5.24,5.24,0,0,1,.51.3l.48.3.28.16a.9.9,0,0,1,.26.17.39.39,0,0,1,0,.44.32.32,0,0,1-.37.19,1.36,1.36,0,0,1-.33-.22l-.19-.15-.39-.33a2.53,2.53,0,0,1-.37-.36l-.19-.26c-.06-.09-.11-.2-.18-.29S347.05,131.91,347.12,131.94Z" style="fill:#f0997a"></path><path d="M333,146.25a15.51,15.51,0,0,0-3,.12l2.46-2.5A4.72,4.72,0,0,0,333,146.25Z" style="fill:#b16668"></path><path d="M325,144.16a6.13,6.13,0,0,1-4.74,4.76c3-.12,4.65-1.42,5.58-3.59A3.51,3.51,0,0,1,325,144.16Z" style="fill:#b16668"></path></g></g></g></g><g id="freepik--character-1--inject-3"><g id="freepik--Chartacter--inject-3"><g id="freepik--bottom--inject-3"><polygon points="164.41 401.86 171.19 399.27 168.94 394.69 164.78 398.6 164.41 401.86"></polygon><path d="M157.33,389.64s-.25,4.42-.31,5.82,5.91,5.69,7.39,6.4l.37-3.26c1.28,1.27,2.05,2.88,3.43,5.26,1.15,2,2.63,5.73,5.78,8.27,4.68,3.78,12,5.68,19.38,5.91s11.66-1.6,13.76-3.22,2.76-3.5,2.22-5.39S157.33,389.64,157.33,389.64Z" style="fill:#263238"></path><path d="M177.1,374.46l.07-2.57c1.37,0,1.55,3.67,3.56,6.92,2.71,4.37,6.68,9.84,10.5,13.3,7.56,6.82,14.29,11.09,17.66,14.16,4.51,4.11-3.35,10.71-15.46,10.09-6-.31-16.69-3.28-19.71-6.82s-4.89-9.06-7.3-11.63-7.58-5.14-9.09-8.27c-.83-1.72-.42-5.73.06-9.15.43-3.13.5-7.93,2.27-7.55l.13,1.61c.73,1.37,2.41,3.62,7.26,4.41C169.47,379.36,176.69,379.54,177.1,374.46Z" style="fill:#37474f"></path><path d="M170.94,379.07c2.31-.21,4.8-1,5.76-3.07a.43.43,0,0,1,0-.07,5.87,5.87,0,0,0,1.58,4.92c2.18,2.53,15.94,20.32,15.94,20.32S181.46,386.5,179,383.74c-3.63-4.09-4.78-4.56-8.08-4.66Z" style="opacity:0.15"></path><path d="M174,383.79a.74.74,0,1,1-.66-.81A.74.74,0,0,1,174,383.79Z" style="opacity:0.15"></path><path d="M177.58,387.73a.74.74,0,0,1-.82.65.73.73,0,0,1-.65-.81.73.73,0,0,1,.81-.66A.74.74,0,0,1,177.58,387.73Z" style="opacity:0.15"></path><path d="M181.17,391.66a.74.74,0,1,1-1.47-.16.73.73,0,0,1,.81-.66A.75.75,0,0,1,181.17,391.66Z" style="opacity:0.15"></path><path d="M184.76,395.59a.74.74,0,0,1-.81.66.75.75,0,0,1-.66-.82.74.74,0,0,1,1.47.16Z" style="opacity:0.15"></path><path d="M188.35,399.52a.74.74,0,1,1-.66-.81A.74.74,0,0,1,188.35,399.52Z" style="opacity:0.15"></path><path d="M173.23,384a.25.25,0,0,1-.19-.09.29.29,0,0,1,0-.42c.15-.14,3.7-3.6,8.36-3.35h0a.31.31,0,0,1,.28.32.3.3,0,0,1-.32.28c-4.4-.24-7.87,3.14-7.9,3.18A.29.29,0,0,1,173.23,384Z" style="fill:#263238"></path><path d="M176.82,387.93a.25.25,0,0,1-.19-.09.31.31,0,0,1,0-.42c.15-.15,3.7-3.6,8.36-3.35h0a.29.29,0,0,1,.28.31.31.31,0,0,1-.31.29c-4.4-.24-7.87,3.14-7.91,3.18A.29.29,0,0,1,176.82,387.93Z" style="fill:#263238"></path><path d="M180.41,391.88a.34.34,0,0,1-.19-.09.31.31,0,0,1,0-.42c.15-.15,3.7-3.6,8.36-3.35h0a.3.3,0,1,1,0,.59c-4.4-.23-7.87,3.15-7.91,3.18A.33.33,0,0,1,180.41,391.88Z" style="fill:#263238"></path><path d="M184,395.81a.34.34,0,0,1-.19-.09.31.31,0,0,1,0-.42c.15-.15,3.7-3.6,8.36-3.35h0a.3.3,0,1,1,0,.59c-4.4-.23-7.87,3.15-7.91,3.18A.26.26,0,0,1,184,395.81Z" style="fill:#263238"></path><path d="M187.59,399.74a.26.26,0,0,1-.19-.09.3.3,0,0,1,0-.42c.15-.15,3.69-3.6,8.35-3.35h0a.29.29,0,0,1,.27.31.31.31,0,0,1-.31.29c-4.39-.24-7.87,3.14-7.9,3.18A.31.31,0,0,1,187.59,399.74Z" style="fill:#263238"></path><path d="M108.92,423.22c-1,5.79-2.4,9.54-4.87,12.71s-6.92,3.54-10.22,2.84c-4.64-1-9.2-4.19-11-10.83-1.06-4-.33-8.56,1.21-13.86Z" style="fill:#263238"></path><path d="M96,378.78c-1.64-.07-3,7.7-4.92,15.42-2,8.28-5.14,12.67-6.65,18.23-2.09,7.71-2,11.31.23,16.39s13.58,11.29,19.2,5.05c4.58-5.09,5.47-11.23,6-19.12.6-8.16,1-13.91,2-20,1-5.85,2.1-11.51.76-12.33-.21.85-.45,1.94-.66,2.77-.17.64-.71,3.81-1.63,3.73a12.9,12.9,0,0,1,.25-2.22,2.67,2.67,0,0,0-.22-2,3.09,3.09,0,0,0-1.71-1,48.44,48.44,0,0,0-4.75-1.33c-.8-.16-1.61-.3-2.43-.39a28.14,28.14,0,0,0-4.28-.33,1.48,1.48,0,0,0-1,.7,2.39,2.39,0,0,0-.19.88,6.62,6.62,0,0,1-.4,1.59c-.08.23-.28.49-.5.41s-.23-.31-.21-.51c.1-.95.31-1.62.48-2.72.08-.51.25-1.2.32-1.71S95.94,379.28,96,378.78Z" style="fill:#37474f"></path><path d="M90.2,415.08a.57.57,0,1,0,1.12.25.57.57,0,0,0-1.12-.25Z" style="opacity:0.15"></path><path d="M91.39,409.72a.57.57,0,0,0,1.12.25.56.56,0,0,0-.43-.68A.57.57,0,0,0,91.39,409.72Z" style="opacity:0.15"></path><path d="M92.52,404.66a.56.56,0,0,0,.43.68.57.57,0,0,0,.69-.43.59.59,0,0,0-.44-.69A.58.58,0,0,0,92.52,404.66Z" style="opacity:0.15"></path><path d="M93.63,399.67a.57.57,0,1,0,1.11.25.57.57,0,1,0-1.11-.25Z" style="opacity:0.15"></path><path d="M106.41,402a.57.57,0,1,0,.68-.44A.58.58,0,0,0,106.41,402Z" style="opacity:0.15"></path><path d="M105.29,407a.57.57,0,0,0,.44.68.56.56,0,0,0,.68-.43.57.57,0,0,0-.43-.69A.59.59,0,0,0,105.29,407Z" style="opacity:0.15"></path><path d="M104.17,412.09a.57.57,0,1,0,1.12.25.57.57,0,0,0-.44-.68A.56.56,0,0,0,104.17,412.09Z" style="opacity:0.15"></path><path d="M103,417.46a.56.56,0,0,0,.43.68.57.57,0,0,0,.69-.43.59.59,0,0,0-.44-.69A.57.57,0,0,0,103,417.46Z" style="opacity:0.15"></path><polygon points="97.88 419.45 106.77 382.09 104.67 381.8 97.88 419.45" style="opacity:0.15"></polygon><path d="M90.7,415.49h.09c3.86-.39,10.23.76,12.6,2.29a.29.29,0,0,0,.31-.49c-2.51-1.62-8.93-2.79-13-2.38a.29.29,0,0,0-.26.32A.28.28,0,0,0,90.7,415.49Z" style="fill:#263238"></path><path d="M91.89,410.13a.26.26,0,0,0,.15,0c3-1,9.83.56,12.54,2.31a.29.29,0,0,0,.4-.09.28.28,0,0,0-.09-.4c-2.82-1.82-9.83-3.44-13-2.37a.28.28,0,0,0-.18.37A.27.27,0,0,0,91.89,410.13Z" style="fill:#263238"></path><path d="M93,405.07a.26.26,0,0,0,.15,0c3-1,9.83.56,12.53,2.31a.29.29,0,0,0,.32-.49c-2.82-1.83-9.84-3.45-13-2.37a.29.29,0,0,0-.18.37A.3.3,0,0,0,93,405.07Z" style="fill:#263238"></path><path d="M94.13,400.08a.26.26,0,0,0,.15,0c3-1,9.83.56,12.53,2.31a.29.29,0,0,0,.32-.49c-2.82-1.82-9.84-3.45-13-2.37a.29.29,0,0,0-.18.37A.28.28,0,0,0,94.13,400.08Z" style="fill:#263238"></path><path d="M106.26,187.51c-3.8,48.14-7.54,114.5-7.54,114.5-.34,3.66-3.85,19.26-5.62,37.29-1.86,19-3.37,54.66-3.37,54.66s13.3,7.15,24.08,3.56c0,0,11.56-60,17.09-82.43,5.23-21.22,13.41-61.43,13.41-61.43l5.58,39.79s-.74,13.72-.33,23.32c.47,11.16,7.6,64.83,7.6,64.83s14.47,8.52,25.66-.06c0,0,1.94-74,2.25-87.44.62-26.35-2.46-77.41-3.42-111.43Z" style="fill:#263238"></path><path d="M124.42,243.73q-1.5,17.29-3.36,34.58-.91,8.64-1.89,17.27l-1,8.63-.51,4.31c-.16,1.44-.45,2.86-.67,4.29-1.9,11.42-4.82,32.16-6.89,43.56s-4.28,22.76-6.63,34.1q2.25-17.22,4.93-34.37c1.79-11.43,4.58-32.19,6.54-43.59.23-1.43.53-2.85.69-4.28l.53-4.31,1.09-8.61q1.1-8.61,2.25-17.21Q121.8,260.9,124.42,243.73Z"></path><path d="M177.74,240.46c1.21,10.76,1.85,21.58,2.31,32.4s.88,21.67.48,32.48-.54,29-.95,39.78-.89,21.63-1.54,32.43q-.25-16.23-.1-32.46c.07-10.82.26-28.95.49-39.76l.2-8.12.05-2,0-2,0-4.06-.2-16.22-.26-16.22C178.09,251.27,177.91,245.87,177.74,240.46Z"></path><path d="M144.31,253.66l4.7-26.37s13.07-1.9,19.77-7.92c0,0-4.32,7.95-16.65,11.07l-4.67,23.29,2.43,39.72Z"></path></g><g id="freepik--top--inject-3"><g id="freepik--chest--inject-3"><path id="freepik--Arm--inject-3" d="M165.59,101.83c6.74,1.76,12.81,3.54,19,13,7.84,12.1,25,36.46,26.35,49.84,1,9.39-22.63,2.7-22.63,2.7l-16.77-26.93Z" style="fill:#37474f"></path><path id="freepik--chest--inject-3" d="M125.25,98.3c-11.74,2.63-15.27,3.77-20.82,5.07,0,0-10.35,29.28-5.37,49.69,1.14,4.69,5,17.63,5.79,27.63.65,8.21.87,11.7,0,23.39,0,0,15.71,11,48.57,7.66,25.79-2.64,28.89-12.25,28.89-12.25s-1.63-35.25-2.81-54.29c-1.55-25-11-40-13.91-43.37-.92-.53-18.42-3.17-18.42-3.17Z" style="fill:#455a64"></path><path id="freepik--arm--inject-3" d="M104.43,103.37c-12.65,3.88-13.86,9.71-14.7,15.09-1.06,6.75,2.75,19.56,5.78,31.44,4,15.79,12.3,30.78,22.19,31.21l7-29.86-6.42-19.7S115,107.09,104.43,103.37Z" style="fill:#37474f"></path></g><g id="freepik--head--inject-3"><path d="M119.55,47.08s-3.8.24-6.35,5c-1.28,2.39-2.23,6.77,1,19.35a50.67,50.67,0,0,0,5.85,13.91,6.24,6.24,0,0,0,3.57,2.92l-.13-9.64-.28-6.72s5.48-4.85,6-9.67c.67-6.2-1.71-9.75-1.71-9.75Z" style="fill:#37474f"></path><path d="M118.23,47.38c1-5.4,8-11.78,21.23-12.32,10.86-.44,17.17,3.37,20.87,9.75s1.11,14.55,1.11,14.55l-34.1-2.66Z" style="fill:#37474f"></path><path d="M114.68,81.32c5,2.49,7.3-1.43,7.3-1.43l.5,21.64c9.42,13,35.06,8.11,24.69-1.63l0-6.1a36.07,36.07,0,0,0,4.33-.41c4.43-.64,7.24-3.75,8.62-8.52,2-7.06,2.94-18.39.42-30.48-.48-2.33-1.46-4.89-3.58-6-5.27-2.69-10.23,1-17.66,3.82-3.07,1.15-10.5,1.59-12.45.64,2.54,2.88,1,10.24.25,12.56-1,3.36-2.48,5-3.18,5.12-3,.6-3.35-2-4.7-3.44s-6.43-2.76-8.68,1.88A9.07,9.07,0,0,0,114.68,81.32Z" style="fill:#ffa8a7"></path><path d="M128.4,87.85c1,4.9,7.56,8.21,18.79,8.62l0-2.67A52.08,52.08,0,0,1,139,93C133.74,92,128.4,87.85,128.4,87.85Z" style="fill:#f28f8f"></path><path d="M139,59.18l-4.9,2.06a2.79,2.79,0,0,1,1.47-3.57A2.6,2.6,0,0,1,139,59.18Z" style="fill:#37474f"></path><path d="M157.51,60.24l-5.13-1.56a2.58,2.58,0,0,1,3.25-1.84A2.82,2.82,0,0,1,157.51,60.24Z" style="fill:#37474f"></path><path d="M135.85,64.44A2.17,2.17,0,1,0,138,62.22,2.17,2.17,0,0,0,135.85,64.44Z" style="fill:#263238"></path><path d="M152.25,63.91a2.17,2.17,0,1,0,2.12-2.22A2,2,0,0,0,152.25,63.91Z" style="fill:#263238"></path><path d="M144.12,60.32l2.39,15.12,8.17-3.1C152.15,66.55,147.55,62.9,144.12,60.32Z" style="fill:#f28f8f"></path><path d="M141.78,77.66l9.76,1a4.81,4.81,0,0,1-5.24,4.55A5.13,5.13,0,0,1,141.78,77.66Z" style="fill:#b16668"></path><path d="M143.11,79.08a5.08,5.08,0,0,0-1.18.15,5.06,5.06,0,0,0,4.37,3.93,4.54,4.54,0,0,0,1.57-.13A4.49,4.49,0,0,0,143.11,79.08Z" style="fill:#f28f8f"></path></g><g id="freepik--mask--inject-3"><path d="M124.72,72.54c0,3.17-.15,14.73,7.62,18.69s19.37,2.8,21.76,1.84c4.32-1.74,8.49-6.37,8.25-20.41a87.87,87.87,0,0,0-9.8-3.36c-5-1.34-4.32-.61-9.76,1.39-4.68,1.73-9,2.88-10.16,2.87C129.83,73.51,126.05,73.29,124.72,72.54Zm14.68,3.63C144.15,72.9,155,72.72,157,74.94c.74,2.28.49,8.28-1.72,10.25-2.61,2.38-11.7,3.13-14.54.68C138.93,84.27,138.58,78.61,139.4,76.17Z" style="fill:#455a64"></path><path d="M152.35,86.63a7.61,7.61,0,0,0,2.94-1.44c2.21-2,2.46-8,1.72-10.25-.73-.79-2.57-1.27-4.84-1.42a37.39,37.39,0,0,0-1.2-4.61c.47.1,1,.23,1.58.39a87.87,87.87,0,0,1,9.8,3.36c.24,14-3.93,18.67-8.25,20.41a16.89,16.89,0,0,1-3.93.73A19.7,19.7,0,0,0,152.35,86.63Z" style="fill:#37474f"></path><path d="M121.49,71.2c2.29,2.08,9.37,4,16.54,1.62,8.05-2.61,8.8-3.7,13.49-3.1,3.22.42,7,2.09,10.83,2.94a3.18,3.18,0,0,0-.1-1.61s-2.55-.57-6.87-2c-3.95-1.28-5.54-2.15-10.13-.44s-9.4,3.32-12.91,3.45c-6.58.22-10.4-3.5-12-3.47A21.81,21.81,0,0,0,121.49,71.2Z" style="fill:#263238"></path><path d="M128.4,87.85l-6.48-2.59a5,5,0,0,1,0-2.88l4.49,1.71A20.41,20.41,0,0,0,128.4,87.85Z" style="fill:#263238"></path><path d="M139.4,76.17C144.15,72.9,155,72.72,157,74.94c.74,2.28.49,8.28-1.72,10.25-2.61,2.38-11.7,3.13-14.54.68C138.93,84.27,138.58,78.61,139.4,76.17Z" style="fill:#2F2A71;opacity:0.2"></path><path d="M156.28,75.34c.73,2.28.49,8.29-1.72,10.25A2.78,2.78,0,0,1,154,86a4.77,4.77,0,0,0,1.3-.83c2.21-2,2.47-8,1.73-10.24-2-2.16-12.33-2-17.24,1C144.9,73.3,154.37,73.29,156.28,75.34Z" style="opacity:0.2"></path><path d="M146.51,88.66c-.37,0-.74,0-1.1,0a.12.12,0,0,1-.12-.13.12.12,0,0,1,.13-.12h0c.67,0,1.35,0,2.06,0a.13.13,0,0,1,.13.13.12.12,0,0,1-.12.13Zm3-.16a.13.13,0,0,1-.13-.12.12.12,0,0,1,.11-.14c.73-.07,1.41-.18,2-.3a.12.12,0,0,1,.15.1.13.13,0,0,1-.1.15,19.57,19.57,0,0,1-2.06.3Zm-6.19-.08h0a10.94,10.94,0,0,1-2-.51.13.13,0,0,1-.07-.17.13.13,0,0,1,.16-.07,11.21,11.21,0,0,0,2,.5.11.11,0,0,1,.1.14A.12.12,0,0,1,143.36,88.42Zm10.23-.78a.12.12,0,0,1-.12-.08.13.13,0,0,1,.07-.17,7,7,0,0,0,1.79-.94.13.13,0,0,1,.18,0,.12.12,0,0,1,0,.17,7.22,7.22,0,0,1-1.86,1Zm-14-.71a.11.11,0,0,1-.08,0,3.8,3.8,0,0,1-.54-.52,3.73,3.73,0,0,1-.65-1.22.13.13,0,0,1,.08-.16.12.12,0,0,1,.16.08,4,4,0,0,0,.6,1.14,4.78,4.78,0,0,0,.51.49.14.14,0,0,1,0,.18A.14.14,0,0,1,139.55,86.93Zm17.16-1.83a.07.07,0,0,1-.06,0,.12.12,0,0,1-.05-.17,10.45,10.45,0,0,0,.81-1.87.13.13,0,1,1,.24.08,10.21,10.21,0,0,1-.83,1.91A.12.12,0,0,1,156.71,85.1ZM138,83.23a.12.12,0,0,1-.13-.11c-.09-.63-.15-1.33-.19-2.07a.14.14,0,0,1,.12-.14h0a.14.14,0,0,1,.13.13,20.12,20.12,0,0,0,.18,2,.14.14,0,0,1-.1.15Zm20.08-2h0a.12.12,0,0,1-.1-.15c.11-.61.21-1.28.29-2a.13.13,0,0,1,.25,0c-.08.76-.18,1.44-.29,2.06A.13.13,0,0,1,158,81.2Zm-20.29-2.1h0a.13.13,0,0,1-.13-.13,16.09,16.09,0,0,1,.18-2.08.09.09,0,0,0,0,0,.11.11,0,0,1,.14-.11.12.12,0,0,1,.11.14.2.2,0,0,1,0,.07,13.93,13.93,0,0,0-.17,2A.13.13,0,0,1,137.74,79.1Zm20.76-2h0a.12.12,0,0,1-.12-.13c0-.22,0-.42,0-.61a5.23,5.23,0,0,0-.15-1.4.13.13,0,0,1,.08-.16.13.13,0,0,1,.16.09,5.39,5.39,0,0,1,.16,1.47c0,.19,0,.4,0,.62A.13.13,0,0,1,158.5,77.09Zm-19.57-1.83a.16.16,0,0,1-.11-.05.13.13,0,0,1,0-.18,9,9,0,0,1,1.85-1,.14.14,0,0,1,.17.07.12.12,0,0,1-.07.17,9.08,9.08,0,0,0-1.8.94A.11.11,0,0,1,138.93,75.26Zm18-1.65h0a14.37,14.37,0,0,0-1.47-.46L155,73a.14.14,0,0,1-.1-.16.14.14,0,0,1,.16-.09l.5.11a14.18,14.18,0,0,1,1.5.47.12.12,0,0,1,.07.16A.13.13,0,0,1,157,73.61Zm-14.28,0a.13.13,0,0,1-.12-.08.12.12,0,0,1,.08-.16,14.84,14.84,0,0,1,2-.51.14.14,0,0,1,.15.1.14.14,0,0,1-.1.15,14.42,14.42,0,0,0-2,.5Zm4.05-.78a.14.14,0,0,1-.13-.12.14.14,0,0,1,.12-.14c.66-.06,1.36-.11,2.07-.14.07,0,.13,0,.13.12a.13.13,0,0,1-.12.14c-.71,0-1.4.07-2.06.14Zm6.2,0h0c-.65-.06-1.35-.09-2.06-.11a.12.12,0,0,1-.12-.13.12.12,0,0,1,.12-.12h0c.71,0,1.41,0,2.07.1a.14.14,0,0,1,.12.14A.13.13,0,0,1,153,72.76Z" style="fill:#fafafa"></path></g><g id="freepik--hands--inject-3"><path d="M150.71,124.29c-7.74,6.74-15.47,13.28-22.4,19-5.9,4.83-10.07,8.13-12.33,12s-3.71,18.61-1,23.88,16.89,0,22.45-5.52,9.81-15.61,14.38-22.95,7.93-12.22,11.86-14.29Z" style="fill:#ffa8a7"></path><path d="M163.66,136.4l-1.14-1.06c-4.15,1.71-7,4.49-10.31,9.43-4.25,6.27-10.07,25.58-17.27,30.92a20.5,20.5,0,0,0,2.48-2.05c5.56-5.48,9.81-15.61,14.38-22.95S159.73,138.47,163.66,136.4Z" style="fill:#f28f8f"></path><path d="M188.42,136.09c-.8,1.33.69,3.59,1.71,5a39.81,39.81,0,0,0,8.78,7.56c4.39,2.82,8.64,6.71,10.72,11.19s2,13-.09,16-7,1.94-11.41-.14c-6.07-2.86-9.39-7.36-13.92-14-4.92-7.23-8.69-13.38-11.66-17S188.42,136.09,188.42,136.09Z" style="fill:#ffa8a7"></path><path d="M190.46,168.15c-2.87-3.84-10.47-20.9-8.75-24.12s6.44-5.38,7.57-4.19h0c-.79-1.28-1.45-2.77-.86-3.75,0,0-18.83,5-15.87,8.62s6.74,9.77,11.66,17c4.53,6.64,7.85,11.14,13.92,14A47.52,47.52,0,0,1,190.46,168.15Z" style="fill:#f28f8f"></path><path d="M194,133.63c-2.67.26-4.87,1.89-7,3.45s-9,6.48-13,6.72S186.89,129.3,194,133.63Z" style="fill:#b16668"></path><path d="M182.83,126.82c4.12-.8,7.07,1,10.84,1.25s6-.1,8.58,1.48,3.7,3.7.45,4.65-6.36-.7-9.52-.49-5.27.66-8.81,3.55-8.45,8-11.37,9.86-4.66.45-4.66.45a11.67,11.67,0,0,1-3.69,2.91,1.86,1.86,0,0,1-2.51-2.06c-1.58.15-2.93-.67-2.56-2.62s3.44-5.51,3.44-5.51-1.83,1.55-2.81,2.27c-1.81,1.34-3.67-.12-2.57-2.78s10.3-10.23,13.69-11.44a11.13,11.13,0,0,1,6.56-.15A32.44,32.44,0,0,1,182.83,126.82Z" style="fill:#ffa8a7"></path><path d="M161.65,139.84c-2.73,2.23-3.64,2.56-4.22,2.16.37,1.1,1.59,1.44,2.78.56,1-.72,2.81-2.27,2.81-2.27l6.75-6.91S164.49,137.53,161.65,139.84Z" style="fill:#f28f8f"></path><path d="M170.61,136.09c-.53,1.08-2.47,2.81-4.09,4.94s-3.55,4.68-4.92,5.73a1.46,1.46,0,0,1-2.08-.22c.07,1.41,1.26,2,2.62,1.88.24-1.44,2.23-3.93,4.12-6.27s5.61-6,5.4-6.57S171.15,135,170.61,136.09Z" style="fill:#f28f8f"></path><path d="M174.72,136.83c.61-.7-.48-1.69-.92-.72s.1,1-1.31,2.68-4.16,4.54-4.89,5.58a4.84,4.84,0,0,0-1,4.91h0a15,15,0,0,0,1.75-1.71c-.86-.71-.81-2.63.77-4.38S174.12,137.53,174.72,136.83Z" style="fill:#f28f8f"></path><path d="M204.69,132.59h0c-.65,1-3.86.94-6,.21s-6.8-2-9.47-1.5-5.37,2.28-8.19,5.88-6.67,7.76-9,9.32-3.31,1.28-3.31,1.28c.64.31,2.14.73,4.31-.66,2.92-1.87,7.83-7,11.37-9.86s5.65-3.34,8.81-3.55,6.27,1.44,9.52.49C204,133.82,204.61,133.24,204.69,132.59Z" style="fill:#f28f8f"></path><path d="M164,135.36a33.83,33.83,0,0,1,7.42-.72c4.57-.45,8.87-.86,9.66-2s3.6-4,3.66-5.24a2.9,2.9,0,0,0-.84-2.09,7.18,7.18,0,0,0,1.65-2.6,4.78,4.78,0,0,0-.6-3.31,4,4,0,0,0,1.24-2,3.2,3.2,0,0,0-2.22-3.8,3.82,3.82,0,0,0,1.33-3.46c-.16-1.67-2.3-2.87-5.1-2.24s-8.34,2.24-9.6,1.41-.65-5.29-.81-8.13-2-7.58-4.68-7.09c-1.42.26-.67,4.64-1.36,8.55s-4.42,8.37-6.45,13.2c-.95,2.28-3.52,5.33-6.58,8.48.54,5.48,5.59,11.19,9.4,12.32A19.57,19.57,0,0,1,164,135.36Z" style="fill:#ffa8a7"></path><path d="M170.59,109.28c-.77-.5-.84-2.37-.82-4.39h0c-.54,1.93-3,4.23-1.88,5.12s4.92-.41,7.38-1h0C173.2,109.47,171.27,109.73,170.59,109.28Z" style="fill:#f28f8f"></path><path d="M185.12,114.21a3.46,3.46,0,0,0-1.16-.64s-3,1.5-5.68,2.61C182.15,115.66,184.13,114.83,185.12,114.21Z" style="fill:#f28f8f"></path><path d="M184.94,119.37c-1.5,1.07-4.76,2.78-4.76,2.78s3.32-.81,5.28-1.54A5.9,5.9,0,0,0,184.94,119.37Z" style="fill:#f28f8f"></path><path d="M183.89,125.28h0a51.24,51.24,0,0,1-4.67,3.33,32,32,0,0,0,5.35-2.24A3,3,0,0,0,183.89,125.28Z" style="fill:#f28f8f"></path><path d="M183.94,129c-1.4,1.78-3.24,3.59-8.32,4.15-4.33.48-8.81.5-13.1,2.17a21.36,21.36,0,0,0-2.49,1.25l.14,0c4.09-1.45,7.21-1.6,11.24-2,4.57-.45,8.87-.86,9.66-2,.53-.78,2-2.29,2.87-3.59Z" style="fill:#f28f8f"></path><path d="M171.41,134.64l4.07-.57a29.16,29.16,0,0,0,4-.78,2.6,2.6,0,0,0,1.62-1c.43-.55.88-1.07,1.33-1.58s.9-1,1.31-1.57a4.44,4.44,0,0,0,1-1.77,4.47,4.47,0,0,1-.84,1.87c-.39.58-.81,1.12-1.24,1.65s-.88,1.06-1.28,1.6a2.88,2.88,0,0,1-.34.43,2.31,2.31,0,0,1-.45.32,5.26,5.26,0,0,1-1,.4,24.78,24.78,0,0,1-4.07.71C174.15,134.49,172.78,134.57,171.41,134.64Z" style="fill:#b16668"></path><path d="M177,116.05a7.09,7.09,0,0,0-.84.8,4,4,0,0,1-1.07.7,3.58,3.58,0,0,1-.71.2c-.2,0-1.1.08-1.23.1a1,1,0,0,0-.46.17s0,.12,0,.14a2,2,0,0,0,.81.19,8.81,8.81,0,0,0,.88.11,2.58,2.58,0,0,0,1.24-.33,3,3,0,0,0,.86-.9,2.81,2.81,0,0,0,.51-1.17S177,116,177,116.05Z" style="fill:#f28f8f"></path><path d="M178.79,121.91a9,9,0,0,0-.85.8,3.88,3.88,0,0,1-1.07.7,3.42,3.42,0,0,1-.71.21c-.19,0-1.1.08-1.22.1a.92.92,0,0,0-.46.17.09.09,0,0,0,0,.13,1.93,1.93,0,0,0,.82.19c.3,0,.58.12.88.12a2.64,2.64,0,0,0,1.23-.34,2.74,2.74,0,0,0,.86-.9,2.86,2.86,0,0,0,.52-1.16S178.8,121.91,178.79,121.91Z" style="fill:#f28f8f"></path><path d="M179.28,127a8,8,0,0,0-.84.8,3.6,3.6,0,0,1-1.07.7,3,3,0,0,1-.71.21c-.2,0-1.1.08-1.23.1a.92.92,0,0,0-.46.17s0,.11,0,.14a2,2,0,0,0,.81.18,6.64,6.64,0,0,0,.88.12,2.7,2.7,0,0,0,1.24-.33,3,3,0,0,0,.86-.91,2.77,2.77,0,0,0,.51-1.16S179.29,127,179.28,127Z" style="fill:#f28f8f"></path></g></g></g></g></svg>