<svg height="166" viewBox="0 0 212 166" width="212" xmlns="http://www.w3.org/2000/svg"><g fill="#1e75d9"><circle cx="2.5" cy="2.5" r="2.5"/><circle cx="25.5" cy="2.5" r="2.5"/><circle cx="48.5" cy="2.5" r="2.5"/><circle cx="71.5" cy="2.5" r="2.5"/><circle cx="94.5" cy="2.5" r="2.5"/><circle cx="117.5" cy="2.5" r="2.5"/><circle cx="140.5" cy="2.5" r="2.5"/><circle cx="163.5" cy="2.5" r="2.5"/><circle cx="186.5" cy="2.5" r="2.5"/><circle cx="209.5" cy="2.5" r="2.5"/><circle cx="2.5" cy="25.5" r="2.5"/><circle cx="25.5" cy="25.5" r="2.5"/><circle cx="48.5" cy="25.5" r="2.5"/><circle cx="71.5" cy="25.5" r="2.5"/><circle cx="94.5" cy="25.5" r="2.5"/><circle cx="117.5" cy="25.5" r="2.5"/><circle cx="140.5" cy="25.5" r="2.5"/><circle cx="163.5" cy="25.5" r="2.5"/><circle cx="186.5" cy="25.5" r="2.5"/><circle cx="209.5" cy="25.5" r="2.5"/><circle cx="2.5" cy="48.5" r="2.5"/><circle cx="25.5" cy="48.5" r="2.5"/><circle cx="48.5" cy="48.5" r="2.5"/><circle cx="71.5" cy="48.5" r="2.5"/><circle cx="94.5" cy="48.5" r="2.5"/><circle cx="117.5" cy="48.5" r="2.5"/><circle cx="140.5" cy="48.5" r="2.5"/><circle cx="163.5" cy="48.5" r="2.5"/><circle cx="186.5" cy="48.5" r="2.5"/><circle cx="209.5" cy="48.5" r="2.5"/><circle cx="2.5" cy="71.5" r="2.5"/><circle cx="25.5" cy="71.5" r="2.5"/><circle cx="48.5" cy="71.5" r="2.5"/><circle cx="71.5" cy="71.5" r="2.5"/><circle cx="94.5" cy="71.5" r="2.5"/><circle cx="117.5" cy="71.5" r="2.5"/><circle cx="140.5" cy="71.5" r="2.5"/><circle cx="163.5" cy="71.5" r="2.5"/><circle cx="186.5" cy="71.5" r="2.5"/><circle cx="209.5" cy="71.5" r="2.5"/><circle cx="2.5" cy="94.5" r="2.5"/><circle cx="25.5" cy="94.5" r="2.5"/><circle cx="48.5" cy="94.5" r="2.5"/><circle cx="71.5" cy="94.5" r="2.5"/><circle cx="94.5" cy="94.5" r="2.5"/><circle cx="117.5" cy="94.5" r="2.5"/><circle cx="140.5" cy="94.5" r="2.5"/><circle cx="163.5" cy="94.5" r="2.5"/><circle cx="186.5" cy="94.5" r="2.5"/><circle cx="209.5" cy="94.5" r="2.5"/><circle cx="2.5" cy="117.5" r="2.5"/><circle cx="25.5" cy="117.5" r="2.5"/><circle cx="48.5" cy="117.5" r="2.5"/><circle cx="71.5" cy="117.5" r="2.5"/><circle cx="94.5" cy="117.5" r="2.5"/><circle cx="117.5" cy="117.5" r="2.5"/><circle cx="140.5" cy="117.5" r="2.5"/><circle cx="163.5" cy="117.5" r="2.5"/><circle cx="186.5" cy="117.5" r="2.5"/><circle cx="209.5" cy="117.5" r="2.5"/><circle cx="2.5" cy="140.5" r="2.5"/><circle cx="25.5" cy="140.5" r="2.5"/><circle cx="48.5" cy="140.5" r="2.5"/><circle cx="71.5" cy="140.5" r="2.5"/><circle cx="94.5" cy="140.5" r="2.5"/><circle cx="117.5" cy="140.5" r="2.5"/><circle cx="140.5" cy="140.5" r="2.5"/><circle cx="163.5" cy="140.5" r="2.5"/><circle cx="186.5" cy="140.5" r="2.5"/><circle cx="209.5" cy="140.5" r="2.5"/><circle cx="2.5" cy="163.5" r="2.5"/><circle cx="25.5" cy="163.5" r="2.5"/><circle cx="48.5" cy="163.5" r="2.5"/><circle cx="71.5" cy="163.5" r="2.5"/><circle cx="94.5" cy="163.5" r="2.5"/><circle cx="117.5" cy="163.5" r="2.5"/><circle cx="140.5" cy="163.5" r="2.5"/><circle cx="163.5" cy="163.5" r="2.5"/><circle cx="186.5" cy="163.5" r="2.5"/><circle cx="209.5" cy="163.5" r="2.5"/></g></svg>