<svg xmlns="http://www.w3.org/2000/svg" viewBox="0 0 88 88"><g id="Circle"><circle cx="44" cy="44" r="44" style="fill:#e5ebee"/></g><g id="Artwork_64x64" data-name="Artwork 64x64"><path d="M18,43V71l11.85-6.18.44.27A26,26,0,1,0,18,43Z" style="fill:#003c57"/><path d="M48.8,39.19c-.71,1-1.49,2.32-1.77,2.85a9.12,9.12,0,0,1-2,2.41,4.67,4.67,0,0,1-.59.36c0-.62.07-1.53.19-2.82,0-.2,0-.36,0-.45a4.1,4.1,0,0,0-1.09-2.92,3.22,3.22,0,0,0-2.35-1.06h-.19c-1.81.11-3.11,1.64-3.27,3.79,0,.3-1.06,6.89-1.34,7.88-.72-.15-5.93-1-6.67-1.08s-2.11-.41-2.18-1.65,1.41-1.87,2.13-1.82,5.54.62,5.55-.21a5.16,5.16,0,0,0-1.08-2.82c-.39-.44-7.42-5.37-8.4-6a2.13,2.13,0,0,1-1-2.47,2,2,0,0,1,2.59-.55c.93.6,6.38,3.92,6.67,4.12s.88,0,.59-.43-4.75-6.24-5.18-6.79-.85-1.9-.12-2.54a1.6,1.6,0,0,1,2.31.19c.62.69,5.62,6.53,5.91,6.91s1,.41.82-.26-2.23-5.88-2.54-6.75a1.87,1.87,0,0,1,.67-2.5c1-.46,1.67.12,2.17.91s2.95,7.31,3.09,7.64.74.63.71,0-.54-5.16-.62-6A1.22,1.22,0,0,1,43,25.68,1.89,1.89,0,0,1,44.67,27c.22.66,1.43,7.48,1.69,7.91S48.13,38,48.8,39.19Z" style="fill:#99b1bc"/><path d="M62.22,50.38c-.77.5-7.31,3-7.63,3.09a.7.7,0,0,0-.33.35c-.07.15,0,.29.14.34a.39.39,0,0,0,.15,0h0c.65,0,5.15-.54,6-.62h.16a1.23,1.23,0,0,1,.89.33,1.19,1.19,0,0,1,.26.36,1.31,1.31,0,0,1,.12.44,1.92,1.92,0,0,1-1.29,1.65c-.63.23-7.48,1.41-7.89,1.69s-4.16,2.32-4.79,2.7a5.59,5.59,0,0,1-2.27.41,5.77,5.77,0,0,1-2.94-.72c-1.82-1.14-4.23-3.22-4.73-5.06a9.77,9.77,0,0,1-.22-4,13.26,13.26,0,0,1,.26-1.75c.24-1.24,1.26-7.31,1.37-8.13s.41-2.1,1.65-2.17a1.38,1.38,0,0,1,.5.05.93.93,0,0,1,.34.18,1.13,1.13,0,0,1,.3.24,1.92,1.92,0,0,1,.43.62,2.45,2.45,0,0,1,.22.67,2.61,2.61,0,0,1,0,.48c0,.12-.6,5.43.22,5.45h0a3.66,3.66,0,0,0,1.19-.26c.26-.11.51-.23.75-.35s.64-.37.83-.49a14.28,14.28,0,0,0,2.53-3.06c.24-.4,3-4.63,3.52-5.33a2.55,2.55,0,0,1,.41-.5A2.27,2.27,0,0,1,54,36.37a1.29,1.29,0,0,1,.57.12,1.92,1.92,0,0,1,.55,2.58c-.6.94-3.92,6.39-4.13,6.69a.47.47,0,0,0,0,.53.23.23,0,0,0,.09.08c.07.07.21.07.38,0,.46-.29,6.22-4.74,6.79-5.19a2.66,2.66,0,0,1,1.53-.52,1.3,1.3,0,0,1,1,.42,1.6,1.6,0,0,1-.2,2.3C59.86,44,54,49,53.63,49.26a.34.34,0,0,0-.12.12c-.16.21-.21.48-.07.62a.28.28,0,0,0,.25.1h.19c.67-.19,5.88-2.24,6.78-2.56a3.07,3.07,0,0,1,1-.19,1.51,1.51,0,0,1,1.46.87C63.61,49.19,63,49.88,62.22,50.38Z" style="fill:#fff"/></g></svg>